<?xml version="1.0" encoding="utf-8"?>
<!-- Generator: Adobe Illustrator 27.4.0, SVG Export Plug-In . SVG Version: 6.00 Build 0)  -->
<svg version="1.1" id="Layer_1" xmlns="http://www.w3.org/2000/svg" xmlns:xlink="http://www.w3.org/1999/xlink" x="0px" y="0px"
	 viewBox="0 0 800 748.5" style="enable-background:new 0 0 800 748.5;" xml:space="preserve">
<style type="text/css">
	.st0{opacity:0.15;clip-path:url(#SVGID_00000168088344450406547090000013571680643392382337_);}
	.st1{fill:#FFFFFF;}
</style>
<g id="Designed_by_Freepik">
</g>
<g>
	<g>
		<defs>
			<rect id="SVGID_1_" x="151" y="19.5" width="649" height="729"/>
		</defs>
		<clipPath id="SVGID_00000059997627892998371150000004073920427604002465_">
			<use xlink:href="#SVGID_1_"  style="overflow:visible;"/>
		</clipPath>
		<g id="Objects" style="opacity:0.15;clip-path:url(#SVGID_00000059997627892998371150000004073920427604002465_);">
			<g>
				<path class="st1" d="M363.4,286.4c6.8-6.1,7.4-16.6,1.2-23.5c-6.1-6.8-16.7-7.3-23.5-1.2c-6.8,6.1-7.3,16.7-1.2,23.5
					C346.1,292,356.6,292.6,363.4,286.4z"/>
				<path class="st1" d="M842.2,816.2c-6.8,6.2-7.3,16.7-1.2,23.5s16.7,7.3,23.5,1.2c6.8-6.2,7.3-16.7,1.2-23.5
					C859.5,810.6,849,810.1,842.2,816.2z"/>
				<path class="st1" d="M701.9,894.4c-8.8,2.5-13.9,11.8-11.3,20.6c2.5,8.8,11.8,13.9,20.6,11.3c8.8-2.5,13.9-11.8,11.3-20.6
					C719.9,896.9,710.7,891.8,701.9,894.4z"/>
				<path class="st1" d="M503.8,208.3c8.8-2.5,13.9-11.8,11.3-20.6s-11.8-13.9-20.6-11.3c-8.8,2.5-13.9,11.8-11.3,20.6
					C485.8,205.7,495,210.8,503.8,208.3z"/>
				<path class="st1" d="M336.7,814.2c6.8-6.2,7.3-16.7,1.2-23.5c-6.1-6.8-16.7-7.3-23.5-1.2s-7.4,16.7-1.2,23.5
					C319.4,819.8,329.9,820.3,336.7,814.2z"/>
				<path class="st1" d="M868.9,288.5c-6.8,6.1-7.3,16.7-1.2,23.5c6.2,6.8,16.7,7.3,23.5,1.2c6.8-6.1,7.3-16.7,1.2-23.5
					C886.2,282.9,875.7,282.3,868.9,288.5z"/>
				<path class="st1" d="M957.2,431.7c-8.8,2.5-13.9,11.8-11.3,20.6c2.5,8.8,11.8,13.9,20.6,11.3c8.8-2.5,13.9-11.8,11.4-20.6
					C975.2,434.3,966,429.2,957.2,431.7z"/>
				<path class="st1" d="M248.4,670.9c8.8-2.5,13.9-11.8,11.4-20.6c-2.5-8.8-11.8-13.9-20.6-11.3c-8.8,2.5-13.9,11.8-11.3,20.6
					C230.4,668.4,239.6,673.5,248.4,670.9z"/>
				<path class="st1" d="M228.8,549c9.2,0.5,17-6.6,17.4-15.8c0.5-9.2-6.6-17-15.8-17.4s-17,6.6-17.4,15.8
					C212.6,540.8,219.6,548.6,228.8,549z"/>
				<path class="st1" d="M976.9,553.6c-9.2-0.5-17,6.6-17.4,15.8c-0.5,9.2,6.6,17,15.8,17.4s17-6.6,17.4-15.8
					C993.1,561.9,986,554.1,976.9,553.6z"/>
				<path class="st1" d="M915.4,723.9c-4.4,8-1.5,18.1,6.5,22.6c8,4.4,18.1,1.5,22.6-6.5c4.4-8,1.5-18.1-6.5-22.6
					C930,712.9,919.9,715.8,915.4,723.9z"/>
				<path class="st1" d="M290.2,378.8c4.4-8,1.5-18.1-6.5-22.6c-8-4.4-18.1-1.5-22.6,6.5c-4.4,8-1.5,18.1,6.5,22.6
					C275.7,389.7,285.8,386.8,290.2,378.8z"/>
				<path class="st1" d="M584.8,907.9c-9.2-0.5-17,6.6-17.4,15.8c-0.5,9.2,6.6,17,15.8,17.4s17-6.6,17.4-15.8
					C601,916.2,593.9,908.4,584.8,907.9z"/>
				<path class="st1" d="M620.8,194.7c9.2,0.5,17-6.6,17.4-15.8c0.5-9.2-6.6-17-15.8-17.4c-9.2-0.5-17,6.6-17.4,15.8
					C604.6,186.5,611.7,194.2,620.8,194.7z"/>
				<path class="st1" d="M768.8,216.1c-4.4,8-1.5,18.1,6.5,22.6c8,4.4,18.1,1.5,22.6-6.5c4.4-8,1.5-18.1-6.5-22.6
					C783.4,205.2,773.3,208.1,768.8,216.1z"/>
				<path class="st1" d="M436.8,886.5c4.4-8,1.5-18.1-6.5-22.6c-8-4.4-18.1-1.5-22.6,6.5c-4.4,8-1.5,18.1,6.5,22.6
					C422.3,897.5,432.4,894.5,436.8,886.5z"/>
				<path class="st1" d="M688.5,503.6c-26.3-47.3-86.2-64.3-133.4-38c-47.3,26.3-64.3,86.2-38,133.4c26.3,47.3,86.2,64.3,133.4,38
					S714.8,550.9,688.5,503.6z M525.3,594.5c-23.8-42.8-8.4-96.9,34.4-120.7c42.8-23.8,96.9-8.4,120.7,34.4
					c23.8,42.8,8.4,96.9-34.4,120.7C603.2,652.7,549.1,637.2,525.3,594.5z"/>
				<path class="st1" d="M657.2,521c-16.7-30-54.7-40.9-84.7-24.1c-30,16.7-40.8,54.7-24.1,84.7c16.7,30,54.7,40.8,84.7,24.1
					C663.2,589,674,551.1,657.2,521z"/>
				<path class="st1" d="M828,490.5l301.2-232.3L773.1,392c-1.9-2-3.8-4-5.8-6L854,235.1l-127,118.8c-8.8-5.5-17.8-10.3-27.2-14.5
					l30.4-235l-98,215.7c-10.1-1.3-20.3-2-30.5-2l-45.1-166.8l-5.8,172.6c-2.9,0.7-5.8,1.4-8.7,2.2L309.8,24.9l133.6,356
					c-2.2,2-4.4,4.1-6.5,6.2l-149.7-86l118,126.2c-5.4,8.7-10.2,17.7-14.4,27l-235-30.4l215.8,98c-1.3,10.1-2,20.3-2,30.5
					l-166.9,45.1l172.7,5.8c0.7,2.9,1.4,5.8,2.2,8.7L76.4,844.4l356.1-133.7c2,2.2,4.1,4.3,6.2,6.4l-86,149.8l126.3-118
					c8.7,5.4,17.7,10.2,26.9,14.4l-30.4,235l98-215.7c10.1,1.3,20.3,2,30.5,2l45.1,166.8l5.8-172.6c2.9-0.7,5.8-1.4,8.7-2.2
					l232.2,301.1l-133.6-356c2.2-2,4.4-4.1,6.5-6.2l149.7,86l-118-126.2c5.4-8.7,10.2-17.7,14.4-27l235,30.4l-215.8-98
					c1.3-10.1,2-20.3,2-30.5l166.9-45.1l-172.6-5.8C829.5,496.3,828.8,493.4,828,490.5z M711.6,490.7c-8.3-14.8-19.4-27.5-32.6-37.7
					c-1.1-0.8-2.1-1.7-3.2-2.5c-1.4-1-2.8-2-4.3-3l-0.1,0.2c-0.2-0.1-0.4-0.3-0.7-0.5l0.1-0.1c-0.8-0.5-1.6-1-2.3-1.5
					c-0.4-0.2-0.7-0.5-1.1-0.8l3.4-1.3l385.1-144.5L711.6,490.7L711.6,490.7z M612.3,662.7c-2.7,0.2-5.5,0.5-8.2,0.5
					c-3.3,0-6.6-0.2-9.9-0.5c-13.8-1.1-27.3-4.5-40.1-10.7c-4.7-2.2-9.2-4.7-13.5-7.5c-0.2-0.1-0.4-0.3-0.6-0.4
					c-14.5-9.8-26.5-22.7-35.2-38.2c-7.8-14-12.1-29.3-13.4-45.1c-0.2-2.7-0.5-5.4-0.5-8.2c0-3.3,0.2-6.5,0.5-9.8
					c1.1-13.8,4.5-27.4,10.7-40.1c2.2-4.6,4.7-9.2,7.5-13.4c0.2-0.3,0.4-0.6,0.6-0.8c9.8-14.5,22.7-26.4,38.1-35
					c14-7.8,29.3-12.1,45.1-13.4c2.7-0.2,5.5-0.5,8.2-0.5c3.3,0,6.6,0.2,9.9,0.5c13.8,1.1,27.3,4.5,40.1,10.7
					c4.7,2.2,9.2,4.7,13.5,7.5c0.2,0.1,0.4,0.3,0.6,0.4c14.5,9.8,26.5,22.7,35.2,38.2c7.8,14,12.1,29.4,13.4,45.1
					c0.2,2.7,0.5,5.4,0.5,8.2c0,3.3-0.2,6.5-0.5,9.8c-1.1,13.8-4.5,27.4-10.7,40.1c-2.2,4.7-4.7,9.2-7.5,13.4
					c-0.2,0.3-0.4,0.6-0.6,0.9c-9.7,14.5-22.6,26.4-38.1,35C643.3,657.1,628,661.4,612.3,662.7z M722.3,585.4
					c1.5-5.3,2.6-10.6,3.4-16l19.8-15.3L969,655.6L722.3,585.4z M766.6,394.4l-77.8,29.2l10-77.6C723.9,357.6,747,373.9,766.6,394.4
					z M636.9,431.8c-5.3-1.5-10.6-2.6-16-3.4l-15.3-19.8l101.5-223.5L636.9,431.8z M629.4,326.2L597,397.4l-50.7-65.8
					C573.8,324.5,601.9,322.9,629.4,326.2z M542.2,442.5c-14.8,8.2-27.4,19.2-37.6,32.4c-0.5,0.7-1.1,1.4-1.6,2.1
					c-1.4,1.9-2.7,3.7-4,5.7c0,0,0,0,0,0c0,0,0,0,0,0l0.2,0.1c-0.1,0.2-0.3,0.5-0.5,0.7l-0.1-0.1c-0.5,0.7-0.9,1.5-1.3,2.2
					c-0.2,0.4-0.6,0.8-0.8,1.2l-1.2-3.2l-6.1-16.4l0,0L350.6,98.3L542.2,442.5L542.2,442.5z M445.9,387.5l29.2,77.8l-77.6-10
					C409.1,430.2,425.4,407.2,445.9,387.5z M236.6,447l246.7,70.2c-1.5,5.3-2.6,10.6-3.4,16l-19.8,15.3L236.6,447L236.6,447z
					 M377.6,524.8l71.3,32.4l-65.8,50.7C376.1,580.4,374.4,552.2,377.6,524.8z M494,611.9c8.3,14.8,19.4,27.5,32.6,37.7
					c1.1,0.8,2.1,1.7,3.2,2.5c1.4,1,2.8,2,4.3,3l0.1-0.2c0.2,0.2,0.4,0.3,0.7,0.5l-0.1,0.1c0.8,0.5,1.6,1,2.3,1.5
					c0.4,0.2,0.7,0.5,1.1,0.8l-3.4,1.3L149.8,803.5L494,611.9z M439,708.3l77.8-29.2l-10,77.6C481.7,745,458.7,728.8,439,708.3z
					 M568.8,670.9c5.3,1.5,10.6,2.6,16,3.4l15.3,19.8L498.5,917.5L568.8,670.9z M576.3,776.5l32.4-71.3l50.7,65.8
					C631.8,778.1,603.7,779.8,576.3,776.5z M663.3,659.9c13.8-7.7,26.2-18,36.2-30.3l0,0c0.1-0.1,0.1-0.2,0.2-0.3
					c0.2-0.3,0.4-0.5,0.6-0.8c0.7-0.9,1.4-1.8,2.1-2.7c1.5-1.9,2.8-3.8,4.1-5.8c0,0,0,0,0,0l0,0l-0.2-0.1c0.1-0.2,0.3-0.4,0.4-0.6
					l0.1,0.1c0.5-0.7,0.9-1.5,1.4-2.2c0.2-0.4,0.6-0.8,0.8-1.2l0.4,1.2l6.9,18.5l0,0L855,1004.4L663.3,659.9z M759.8,715.1
					l-29.2-77.8l77.6,10C796.5,672.5,780.3,695.5,759.8,715.1z M756.7,545.5l65.8-50.7c7.1,27.5,8.8,55.6,5.5,83.1L756.7,545.5z"/>
			</g>
		</g>
	</g>
</g>
</svg>
