<?xml version="1.0" encoding="utf-8"?>
<!-- Generator: Adobe Illustrator 27.3.1, SVG Export Plug-In . SVG Version: 6.00 Build 0)  -->
<svg version="1.1" id="Layer_1" xmlns="http://www.w3.org/2000/svg" xmlns:xlink="http://www.w3.org/1999/xlink" x="0px" y="0px"
	 viewBox="0 0 800 748.51" style="enable-background:new 0 0 800 748.51;" xml:space="preserve">
<style type="text/css">
	.st0{clip-path:url(#SVGID_00000163074687038652571910000002190104235897541005_);}
	.st1{fill:#FFFFFF;}
</style>
<g id="Designed_by_Freepik">
</g>
<g>
	<defs>
		<rect id="SVGID_1_" x="151" y="19.51" width="649" height="729"/>
	</defs>
	<clipPath id="SVGID_00000152974763094446295200000012148886509004462507_">
		<use xlink:href="#SVGID_1_"  style="overflow:visible;"/>
	</clipPath>
	<g id="Objects" style="clip-path:url(#SVGID_00000152974763094446295200000012148886509004462507_);">
		<g>
			<path class="st1" d="M363.41,286.41c6.81-6.15,7.35-16.65,1.19-23.45c-6.15-6.81-16.66-7.34-23.45-1.19
				c-6.81,6.15-7.34,16.66-1.19,23.45C346.11,292.02,356.6,292.56,363.41,286.41z"/>
			<path class="st1" d="M842.23,816.24c-6.81,6.15-7.34,16.66-1.19,23.47c6.15,6.81,16.66,7.34,23.45,1.19
				c6.81-6.15,7.34-16.66,1.19-23.45C859.53,810.63,849.03,810.11,842.23,816.24z"/>
			<path class="st1" d="M701.86,894.38c-8.81,2.54-13.89,11.75-11.34,20.56c2.54,8.81,11.75,13.89,20.56,11.34
				c8.81-2.54,13.89-11.75,11.34-20.56C719.89,896.92,710.68,891.84,701.86,894.38z"/>
			<path class="st1" d="M503.78,208.27c8.81-2.54,13.89-11.75,11.34-20.56s-11.75-13.89-20.56-11.34
				c-8.81,2.54-13.89,11.75-11.34,20.56C485.75,205.73,494.96,210.81,503.78,208.27z"/>
			<path class="st1" d="M336.71,814.19c6.81-6.15,7.34-16.66,1.19-23.45c-6.15-6.81-16.66-7.34-23.47-1.19
				c-6.81,6.15-7.35,16.65-1.19,23.45C319.4,819.82,329.9,820.34,336.71,814.19z"/>
			<path class="st1" d="M868.93,288.46c-6.81,6.15-7.34,16.66-1.19,23.45c6.15,6.81,16.66,7.34,23.45,1.19
				c6.81-6.15,7.34-16.66,1.19-23.45C886.23,282.85,875.73,282.31,868.93,288.46z"/>
			<path class="st1" d="M957.22,431.72c-8.81,2.54-13.89,11.75-11.34,20.56c2.54,8.81,11.75,13.89,20.56,11.34
				c8.81-2.54,13.89-11.75,11.36-20.57C975.24,434.26,966.03,429.18,957.22,431.72z"/>
			<path class="st1" d="M248.41,670.94c8.81-2.54,13.89-11.75,11.36-20.57c-2.54-8.81-11.76-13.9-20.56-11.34
				c-8.81,2.54-13.89,11.75-11.34,20.56C230.39,668.41,239.59,673.48,248.41,670.94z"/>
			<path class="st1" d="M228.78,549.04c9.17,0.46,16.97-6.58,17.43-15.75c0.46-9.17-6.58-16.97-15.75-17.43
				c-9.17-0.46-16.97,6.58-17.43,15.75C212.57,540.77,219.62,548.58,228.78,549.04z"/>
			<path class="st1" d="M976.86,553.63c-9.17-0.46-16.96,6.59-17.43,15.75c-0.46,9.17,6.58,16.97,15.75,17.43
				c9.17,0.46,16.96-6.59,17.43-15.75C993.07,561.89,986.03,554.09,976.86,553.63z"/>
			<path class="st1" d="M915.43,723.87c-4.44,8.03-1.52,18.13,6.52,22.57c8.03,4.44,18.13,1.52,22.57-6.52
				c4.44-8.03,1.52-18.13-6.52-22.57C929.97,712.93,919.87,715.84,915.43,723.87z"/>
			<path class="st1" d="M290.2,378.79c4.44-8.03,1.52-18.13-6.52-22.57c-8.03-4.44-18.13-1.52-22.57,6.52
				c-4.44,8.03-1.52,18.13,6.52,22.57C275.68,389.74,285.77,386.82,290.2,378.79z"/>
			<path class="st1" d="M584.77,907.94c-9.17-0.46-16.96,6.59-17.43,15.75c-0.46,9.17,6.58,16.97,15.75,17.43
				c9.17,0.46,16.96-6.59,17.43-15.75C601,916.21,593.94,908.4,584.77,907.94z"/>
			<path class="st1" d="M620.85,194.72c9.17,0.46,16.96-6.59,17.43-15.75c0.46-9.17-6.59-16.96-15.75-17.43
				c-9.17-0.46-16.96,6.59-17.43,15.75C604.64,186.46,611.7,194.25,620.85,194.72z"/>
			<path class="st1" d="M768.84,216.15c-4.44,8.03-1.52,18.13,6.52,22.57c8.03,4.44,18.13,1.52,22.57-6.52
				c4.44-8.03,1.52-18.13-6.52-22.57C783.38,205.2,773.28,208.12,768.84,216.15z"/>
			<path class="st1" d="M436.8,886.51c4.44-8.03,1.52-18.13-6.52-22.57c-8.03-4.44-18.14-1.51-22.57,6.52
				c-4.44,8.03-1.52,18.13,6.52,22.57C422.26,897.45,432.36,894.55,436.8,886.51z"/>
			<path class="st1" d="M688.52,503.61c-26.31-47.26-86.16-64.31-133.42-37.99c-47.26,26.31-64.31,86.16-37.99,133.42
				c26.31,47.26,86.16,64.31,133.42,37.99S714.84,550.88,688.52,503.61z M525.28,594.49c-23.8-42.76-8.39-96.9,34.37-120.71
				c42.76-23.8,96.9-8.39,120.71,34.37c23.8,42.76,8.39,96.9-34.37,120.71C603.22,652.67,549.08,637.25,525.28,594.49z"/>
			<path class="st1" d="M657.22,521.04c-16.73-30.05-54.65-40.86-84.72-24.13c-30.05,16.73-40.85,54.67-24.12,84.72
				c16.73,30.05,54.67,40.85,84.72,24.12C663.16,589.02,673.95,551.09,657.22,521.04z"/>
			<path class="st1" d="M828.01,490.55l301.24-232.27L773.13,391.96c-1.89-2.03-3.8-4.04-5.76-6l86.59-150.82L726.92,353.91
				c-8.76-5.47-17.85-10.28-27.19-14.55l30.38-235.01l-97.97,215.73c-10.1-1.3-20.29-2-30.52-1.99L556.52,151.3l-5.81,172.56
				c-2.92,0.68-5.82,1.44-8.72,2.21L309.76,24.9l133.63,356.02c-2.19,2.05-4.36,4.12-6.48,6.25L287.18,301.2l118,126.22
				c-5.41,8.69-10.17,17.72-14.39,26.98l-234.97-30.37l215.75,97.99c-1.28,10.09-1.98,20.26-1.95,30.48l-166.87,45.14l172.66,5.8
				c0.66,2.89,1.41,5.78,2.2,8.66L76.38,844.39l356.13-133.67c2.03,2.18,4.09,4.34,6.2,6.43l-86.03,149.82l126.28-118.05
				c8.68,5.4,17.68,10.17,26.93,14.4l-30.38,235.01l97.97-215.72c10.1,1.3,20.29,2,30.52,1.99l45.12,166.79l5.81-172.56
				c2.92-0.68,5.82-1.44,8.72-2.21l232.21,301.14L762.24,721.73c2.19-2.05,4.36-4.12,6.48-6.25l149.73,85.97l-118-126.22
				c5.41-8.69,10.17-17.72,14.39-26.98l234.97,30.37l-215.76-97.99c1.28-10.09,1.98-20.26,1.95-30.48l166.87-45.14l-172.65-5.81
				C829.54,496.3,828.79,493.43,828.01,490.55z M711.64,490.74c-8.26-14.84-19.37-27.54-32.6-37.74c-1.06-0.83-2.12-1.67-3.19-2.46
				c-1.41-1.04-2.85-2.04-4.32-3.01l-0.11,0.17c-0.23-0.15-0.44-0.32-0.66-0.45l0.08-0.12c-0.76-0.5-1.56-0.96-2.35-1.45
				c-0.37-0.24-0.71-0.54-1.1-0.77l3.4-1.28l385.07-144.53L711.64,490.74L711.64,490.74z M612.27,662.68
				c-2.73,0.24-5.46,0.45-8.2,0.47c-3.29,0.03-6.6-0.19-9.92-0.47c-13.79-1.11-27.34-4.54-40.06-10.7
				c-4.68-2.25-9.22-4.69-13.47-7.52c-0.2-0.13-0.39-0.27-0.58-0.4c-14.55-9.76-26.55-22.74-35.18-38.23
				c-7.8-14.02-12.14-29.35-13.41-45.11c-0.23-2.72-0.45-5.44-0.48-8.18c-0.03-3.26,0.2-6.53,0.45-9.81
				c1.1-13.8,4.55-27.39,10.7-40.13c2.25-4.65,4.67-9.19,7.48-13.43c0.19-0.29,0.4-0.56,0.6-0.83c9.76-14.45,22.66-26.4,38.08-34.98
				c14.02-7.8,29.34-12.13,45.07-13.41c2.73-0.24,5.46-0.45,8.2-0.47c3.29-0.03,6.6,0.19,9.92,0.47
				c13.79,1.11,27.33,4.54,40.06,10.7c4.68,2.25,9.22,4.69,13.48,7.51c0.2,0.13,0.39,0.27,0.58,0.4
				c14.55,9.76,26.55,22.74,35.18,38.23c7.81,14.03,12.14,29.35,13.41,45.11c0.23,2.72,0.45,5.44,0.47,8.16
				c0.03,3.26-0.19,6.54-0.47,9.82c-1.1,13.8-4.53,27.38-10.68,40.12c-2.25,4.65-4.67,9.19-7.48,13.43
				c-0.19,0.29-0.42,0.59-0.62,0.86c-9.74,14.45-22.64,26.37-38.06,34.95C643.33,657.08,628.02,661.39,612.27,662.68z
				 M722.35,585.37c1.52-5.26,2.6-10.6,3.42-15.98l19.8-15.26l223.46,101.49L722.35,585.37z M766.63,394.39l-77.78,29.2l10.03-77.62
				C723.94,357.64,746.95,373.89,766.63,394.39z M636.86,431.79c-5.26-1.52-10.6-2.6-15.98-3.42l-15.26-19.8L707.1,185.1
				L636.86,431.79z M629.38,326.16L597,397.42l-50.74-65.81C573.79,324.55,601.92,322.88,629.38,326.16z M542.23,442.5
				c-14.76,8.21-27.4,19.22-37.56,32.35c-0.54,0.69-1.1,1.37-1.62,2.07c-1.39,1.85-2.74,3.74-4.01,5.67
				c-0.01,0.01-0.01,0.01-0.03,0.02c0,0-0.01,0.01-0.01,0.02l0.17,0.11c-0.15,0.23-0.32,0.46-0.47,0.69l-0.14-0.09
				c-0.47,0.73-0.87,1.47-1.33,2.19c-0.25,0.42-0.58,0.79-0.83,1.21l-1.21-3.25l-6.15-16.39l0,0L350.6,98.27L542.23,442.5
				L542.23,442.5z M445.86,387.51l29.2,77.78l-77.62-10.03C409.11,430.2,425.36,407.18,445.86,387.51z M236.61,447.05l246.67,70.23
				c-1.52,5.26-2.6,10.6-3.4,15.98l-19.8,15.26l-223.5-101.49L236.61,447.05z M377.65,524.79l71.26,32.36l-65.8,50.73
				C376.06,580.36,374.38,552.24,377.65,524.79z M493.98,611.92c8.26,14.84,19.37,27.54,32.6,37.74c1.06,0.83,2.12,1.67,3.19,2.46
				c1.41,1.04,2.85,2.04,4.32,3.01l0.11-0.17c0.23,0.15,0.44,0.32,0.66,0.45l-0.08,0.12c0.76,0.5,1.56,0.96,2.35,1.45
				c0.39,0.23,0.72,0.53,1.1,0.77l-3.4,1.28L149.76,803.54L493.98,611.92z M439,708.28l77.78-29.2l-10.03,77.62
				C481.7,745.01,458.68,728.76,439,708.28z M568.78,670.86c5.26,1.52,10.6,2.6,15.98,3.42l15.26,19.8L498.53,917.54L568.78,670.86z
				 M576.26,776.51l32.37-71.28l50.74,65.81C631.84,778.1,603.71,779.79,576.26,776.51z M663.28,659.94
				c13.8-7.68,26.16-17.97,36.19-30.27l0.03,0.02c0.08-0.1,0.14-0.19,0.22-0.27c0.21-0.26,0.4-0.52,0.61-0.78
				c0.72-0.91,1.44-1.82,2.14-2.74c1.45-1.91,2.83-3.84,4.14-5.84c0,0,0,0,0.01-0.01l0.01-0.02l-0.18-0.12
				c0.14-0.21,0.3-0.43,0.44-0.64l0.14,0.09c0.48-0.73,0.89-1.5,1.36-2.24c0.25-0.42,0.58-0.79,0.83-1.21l0.44,1.19l6.92,18.45l0,0
				l138.45,368.83L663.28,659.94z M759.77,715.14l-29.21-77.8l77.63,10.03C796.52,672.45,780.28,695.47,759.77,715.14z
				 M756.72,545.51l65.8-50.73c7.06,27.51,8.75,55.65,5.46,83.09L756.72,545.51z"/>
		</g>
	</g>
</g>
</svg>
