<?xml version="1.0" encoding="utf-8"?>
<!-- Generator: Adobe Illustrator 27.4.0, SVG Export Plug-In . SVG Version: 6.00 Build 0)  -->
<svg version="1.1" id="Layer_1" xmlns="http://www.w3.org/2000/svg" xmlns:xlink="http://www.w3.org/1999/xlink" x="0px" y="0px"
	 viewBox="0 0 722.5 748.5" style="enable-background:new 0 0 722.5 748.5;" xml:space="preserve">
<style type="text/css">
	.st0{fill:none;}
	.st1{opacity:0.15;clip-path:url(#SVGID_00000181072256777868975750000000104005731262722692_);}
	.st2{fill:#FFFFFF;}
</style>
<g id="Designed_by_Freepik">
</g>
<rect x="79.1" y="-224.5" class="st0" width="649" height="729"/>
<g>
	<g>
		<defs>
			<rect id="SVGID_1_" width="722.5" height="748.5"/>
		</defs>
		<clipPath id="SVGID_00000085234465717303482030000015621776645587438754_">
			<use xlink:href="#SVGID_1_"  style="overflow:visible;"/>
		</clipPath>
		<g id="Objects" style="opacity:0.15;clip-path:url(#SVGID_00000085234465717303482030000015621776645587438754_);">
			<g>
				<path class="st2" d="M286.9,236.3c6-5.8,6.2-15.4,0.4-21.4c-5.8-6-15.4-6.2-21.4-0.4c-6,5.8-6.2,15.4-0.4,21.4
					C271.3,241.9,280.9,242.1,286.9,236.3z"/>
				<path class="st2" d="M737.5,704.3c-6,5.8-6.2,15.4-0.4,21.4c5.8,6,15.4,6.2,21.4,0.4c6-5.8,6.2-15.4,0.4-21.4
					C753.1,698.7,743.5,698.5,737.5,704.3z"/>
				<path class="st2" d="M612.1,779.4c-7.9,2.6-12.3,11.1-9.7,19c2.6,7.9,11.1,12.3,19,9.7c7.9-2.6,12.3-11.1,9.7-19
					C628.6,781.2,620.1,776.8,612.1,779.4z"/>
				<path class="st2" d="M412.3,161.2c7.9-2.6,12.3-11.1,9.7-19s-11.1-12.3-19-9.7c-7.9,2.6-12.3,11.1-9.7,19
					C395.8,159.4,404.4,163.7,412.3,161.2z"/>
				<path class="st2" d="M277.8,716.9c6-5.8,6.2-15.4,0.4-21.4c-5.8-6-15.4-6.2-21.4-0.4c-6,5.8-6.2,15.4-0.4,21.4
					C262.2,722.6,271.8,722.7,277.8,716.9z"/>
				<path class="st2" d="M746.6,223.6c-6,5.8-6.2,15.4-0.4,21.4c5.8,6,15.4,6.2,21.4,0.4c6-5.8,6.2-15.4,0.4-21.4
					C762.2,218,752.7,217.8,746.6,223.6z"/>
				<path class="st2" d="M831,351.4c-7.9,2.6-12.3,11.1-9.7,19c2.6,7.9,11.1,12.3,19,9.7c7.9-2.6,12.3-11.1,9.7-19
					C847.5,353.1,839,348.8,831,351.4z"/>
				<path class="st2" d="M193.4,589.2c7.9-2.6,12.3-11.1,9.7-19c-2.6-7.9-11.1-12.3-19-9.7c-7.9,2.6-12.3,11.1-9.7,19
					C176.9,587.4,185.4,591.8,193.4,589.2z"/>
				<path class="st2" d="M172,478.9c8.4,0.2,15.2-6.5,15.4-14.8c0.2-8.4-6.5-15.2-14.8-15.4c-8.4-0.2-15.2,6.5-15.4,14.8
					C157,471.9,163.7,478.8,172,478.9z"/>
				<path class="st2" d="M852.4,461.6c-8.4-0.2-15.2,6.5-15.4,14.8c-0.2,8.4,6.5,15.2,14.8,15.4c8.4,0.2,15.2-6.5,15.4-14.8
					C867.4,468.7,860.7,461.8,852.4,461.6z"/>
				<path class="st2" d="M801.4,618.2c-3.8,7.4-0.9,16.5,6.6,20.3c7.4,3.8,16.5,0.9,20.3-6.6c3.8-7.4,0.9-16.5-6.6-20.3
					C814.3,607.8,805.2,610.8,801.4,618.2z"/>
				<path class="st2" d="M223,322.4c3.8-7.4,0.9-16.5-6.6-20.3c-7.4-3.8-16.5-0.9-20.3,6.6c-3.8,7.4-0.9,16.5,6.6,20.3
					C210.1,332.7,219.2,329.8,223,322.4z"/>
				<path class="st2" d="M506,795.1c-8.4-0.2-15.2,6.5-15.4,14.8c-0.2,8.4,6.5,15.2,14.8,15.4c8.4,0.2,15.2-6.5,15.4-14.8
					C521,802.1,514.4,795.2,506,795.1z"/>
				<path class="st2" d="M518.4,145.5c8.4,0.2,15.2-6.5,15.4-14.8c0.2-8.4-6.5-15.2-14.8-15.4c-8.4-0.2-15.2,6.5-15.4,14.8
					C503.4,138.5,510,145.3,518.4,145.5z"/>
				<path class="st2" d="M653.6,160.7c-3.8,7.4-0.9,16.5,6.6,20.3c7.4,3.8,16.5,0.9,20.3-6.6c3.8-7.4,0.9-16.5-6.6-20.3
					C666.5,150.4,657.4,153.3,653.6,160.7z"/>
				<path class="st2" d="M370.9,779.8c3.8-7.4,0.9-16.5-6.6-20.3c-7.4-3.8-16.5-0.9-20.3,6.6c-3.8,7.4-0.9,16.5,6.6,20.3
					C357.9,790.2,367,787.3,370.9,779.8z"/>
				<path class="st2" d="M588.8,424.4c-25.3-42.2-80.2-56-122.4-30.7s-56,80.2-30.7,122.4c25.3,42.2,80.2,56,122.4,30.7
					C600.3,521.6,614.1,466.7,588.8,424.4z M442.9,511.8c-22.9-38.2-10.4-87.9,27.8-110.7c38.2-22.9,87.9-10.4,110.7,27.8
					c22.9,38.2,10.4,87.9-27.8,110.7C515.5,562.4,465.8,550,442.9,511.8z"/>
				<path class="st2" d="M560.8,441.2c-16.1-26.8-50.9-35.6-77.7-19.5c-26.8,16.1-35.6,50.9-19.5,77.7
					c16.1,26.8,50.9,35.6,77.7,19.5C568.2,502.8,576.9,468,560.8,441.2z"/>
				<path class="st2" d="M715.2,408.6l267.3-219.8l-320,131.8c-1.8-1.8-3.6-3.6-5.4-5.3l74.4-139.6L619.4,287.2
					c-8.1-4.7-16.5-8.8-25.1-12.5l20.9-214.6l-82.9,199c-9.2-0.9-18.5-1.2-27.8-0.9l-45.8-150.4l-0.3,157.1
					c-2.6,0.7-5.3,1.5-7.9,2.3L230.6,0l131.7,319.9c-1.9,1.9-3.8,3.9-5.7,5.9L218,251.9l110.9,111.4c-4.7,8.1-8.7,16.4-12.3,24.9
					l-214.5-20.9l199,82.9c-0.9,9.2-1.2,18.5-0.9,27.8l-150.4,45.8l157.2,0.3c0.7,2.6,1.4,5.2,2.2,7.8L41.9,751.9l320-131.8
					c1.9,1.9,3.8,3.8,5.8,5.7l-73.9,138.7l111.4-111c8,4.7,16.4,8.7,24.9,12.3l-20.9,214.6l82.9-199c9.2,0.9,18.5,1.2,27.8,0.9
					l45.8,150.4l0.3-157.1c2.6-0.7,5.3-1.5,7.9-2.3l219.8,267.2L662.1,620.7c1.9-1.9,3.8-3.9,5.7-5.9l138.6,73.9L695.5,577.3
					c4.7-8.1,8.7-16.4,12.3-24.9l214.5,20.9l-199-82.9c0.9-9.2,1.2-18.5,0.9-27.8l150.4-45.8l-157.2-0.3
					C716.8,413.8,716,411.2,715.2,408.6z M609.4,412.1c-7.9-13.3-18.4-24.5-30.7-33.4c-1-0.7-2-1.5-3-2.1c-1.3-0.9-2.7-1.8-4-2.6
					l-0.1,0.2c-0.2-0.1-0.4-0.3-0.6-0.4l0.1-0.1c-0.7-0.4-1.4-0.8-2.2-1.3c-0.3-0.2-0.7-0.5-1-0.7l3.1-1.3l346-142.5L609.4,412.1
					L609.4,412.1z M524,571.3c-2.5,0.3-5,0.6-7.4,0.7c-3,0.1-6,0-9-0.1c-12.6-0.6-25-3.3-36.7-8.6c-4.3-1.9-8.5-4-12.5-6.5
					c-0.2-0.1-0.4-0.2-0.5-0.3c-13.5-8.5-24.8-19.9-33.1-33.8c-7.5-12.5-11.9-26.3-13.5-40.6c-0.3-2.5-0.6-4.9-0.7-7.4
					c-0.1-3,0-5.9,0.1-8.9c0.6-12.6,3.4-25,8.6-36.8c1.9-4.3,4-8.5,6.4-12.4c0.2-0.3,0.3-0.5,0.5-0.8c8.5-13.4,19.8-24.7,33.6-32.9
					c12.5-7.5,26.3-11.9,40.6-13.5c2.5-0.3,5-0.6,7.4-0.7c3-0.1,6,0,9,0.1c12.6,0.6,25,3.3,36.7,8.6c4.3,1.9,8.5,4,12.5,6.4
					c0.2,0.1,0.4,0.2,0.5,0.3c13.5,8.5,24.8,19.9,33.1,33.8c7.5,12.5,11.9,26.3,13.5,40.6c0.3,2.5,0.6,4.9,0.7,7.4
					c0.1,3,0,6-0.1,8.9c-0.6,12.6-3.3,25-8.6,36.8c-1.9,4.3-4,8.5-6.4,12.4c-0.2,0.3-0.4,0.5-0.5,0.8c-8.4,13.4-19.8,24.6-33.6,32.9
					C552.1,565.3,538.3,569.6,524,571.3z M621.9,497.8c1.2-4.8,2.1-9.7,2.7-14.6l17.6-14.4l206.1,85.9L621.9,497.8z M656.7,322.9
					l-69.9,28.8l6.9-70.9C616.8,290.7,638.2,304.8,656.7,322.9z M539.7,360.6c-4.8-1.2-9.7-2.1-14.6-2.7l-14.4-17.6l85.9-206.1
					L539.7,360.6z M529.9,264.8l-27.4,65.7l-48-58.4C479.3,264.9,504.8,262.6,529.9,264.8z M454,373.1
					c-13.2,7.9-24.4,18.3-33.2,30.5c-0.5,0.6-1,1.3-1.4,1.9c-1.2,1.7-2.4,3.5-3.5,5.3c0,0,0,0,0,0c0,0,0,0,0,0l0.2,0.1
					c-0.1,0.2-0.3,0.4-0.4,0.6l-0.1-0.1c-0.4,0.7-0.7,1.4-1.1,2c-0.2,0.4-0.5,0.7-0.7,1.1l-1.2-2.9l-6.1-14.7l0,0L269.9,65.5
					L454,373.1L454,373.1z M364.8,325.8l28.8,69.9l-70.9-6.9C332.6,365.7,346.7,344.3,364.8,325.8z M176.2,386l226.3,56.8
					c-1.2,4.8-2.1,9.7-2.6,14.6l-17.6,14.4L176.2,386L176.2,386z M306.7,452.6l65.7,27.4L314,528
					C306.9,503.2,304.5,477.7,306.7,452.6z M415,528.5c7.9,13.3,18.4,24.5,30.7,33.4c1,0.7,2,1.5,3,2.1c1.3,0.9,2.7,1.8,4,2.6
					l0.1-0.2c0.2,0.1,0.4,0.3,0.6,0.4l-0.1,0.1c0.7,0.4,1.4,0.8,2.2,1.3c0.4,0.2,0.7,0.5,1,0.7l-3.1,1.3l-346,142.5L415,528.5z
					 M367.7,617.7l69.9-28.8l-6.9,70.9C407.6,649.9,386.2,635.8,367.7,617.7z M484.7,580c4.8,1.2,9.7,2.1,14.6,2.7l14.4,17.6
					l-85.9,206.1L484.7,580z M494.5,675.8l27.4-65.7l48,58.4C545.1,675.7,519.6,678,494.5,675.8z M570.3,567.3
					c12.3-7.4,23.3-17.1,32-28.6l0,0c0.1-0.1,0.1-0.2,0.2-0.3c0.2-0.2,0.3-0.5,0.5-0.7c0.6-0.8,1.3-1.7,1.9-2.6
					c1.3-1.8,2.5-3.6,3.6-5.4c0,0,0,0,0,0l0,0l-0.2-0.1c0.1-0.2,0.3-0.4,0.4-0.6l0.1,0.1c0.4-0.7,0.8-1.4,1.2-2.1
					c0.2-0.4,0.5-0.7,0.7-1.1l0.4,1.1l6.8,16.6l0,0L754.5,875L570.3,567.3z M659.6,614.7l-28.8-69.9l70.9,6.9
					C691.8,574.9,677.7,596.3,659.6,614.7z M652,460.6l58.4-48c7.2,24.8,9.6,50.4,7.3,75.4L652,460.6z"/>
			</g>
		</g>
	</g>
</g>
</svg>
