<?xml version="1.0" encoding="utf-8"?>
<!-- Generator: Adobe Illustrator 27.4.0, SVG Export Plug-In . SVG Version: 6.00 Build 0)  -->
<svg version="1.1" id="Isolation_Mode" xmlns="http://www.w3.org/2000/svg" xmlns:xlink="http://www.w3.org/1999/xlink" x="0px"
	 y="0px" viewBox="0 0 800 748.5" style="enable-background:new 0 0 800 748.5;" xml:space="preserve">
<style type="text/css">
	.st0{fill:#FFFFFF;}
	.st1{fill:#016468;}
</style>
<circle class="st0" cx="400" cy="374.3" r="371.4"/>
<g id="Objects">
	<g>
		<path class="st1" d="M268.2,228.4c3.7-3.4,4-9.2,0.7-12.9c-3.4-3.7-9.2-4-12.9-0.7c-3.7,3.4-4,9.2-0.7,12.9
			C258.7,231.5,264.5,231.8,268.2,228.4z"/>
		<path class="st1" d="M531.8,520.1c-3.7,3.4-4,9.2-0.7,12.9c3.4,3.7,9.2,4,12.9,0.7c3.7-3.4,4-9.2,0.7-12.9
			C541.3,517,535.5,516.7,531.8,520.1z"/>
		<path class="st1" d="M454.5,563.1c-4.9,1.4-7.6,6.5-6.2,11.3c1.4,4.9,6.5,7.6,11.3,6.2c4.9-1.4,7.6-6.5,6.2-11.3
			C464.4,564.5,459.4,561.7,454.5,563.1z"/>
		<path class="st1" d="M345.5,185.4c4.9-1.4,7.6-6.5,6.2-11.3c-1.4-4.9-6.5-7.6-11.3-6.2c-4.9,1.4-7.6,6.5-6.2,11.3
			C335.6,184,340.6,186.8,345.5,185.4z"/>
		<path class="st1" d="M253.5,519c3.7-3.4,4-9.2,0.7-12.9c-3.4-3.7-9.2-4-12.9-0.7s-4,9.2-0.7,12.9C244,522.1,249.8,522.3,253.5,519
			z"/>
		<path class="st1" d="M546.5,229.6c-3.7,3.4-4,9.2-0.7,12.9c3.4,3.7,9.2,4,12.9,0.7c3.7-3.4,4-9.2,0.7-12.9
			C556,226.5,550.2,226.2,546.5,229.6z"/>
		<path class="st1" d="M595.1,308.4c-4.9,1.4-7.6,6.5-6.2,11.3c1.4,4.9,6.5,7.6,11.3,6.2s7.6-6.5,6.3-11.3
			C605,309.8,599.9,307,595.1,308.4z"/>
		<path class="st1" d="M204.9,440.1c4.9-1.4,7.6-6.5,6.3-11.3c-1.4-4.9-6.5-7.7-11.3-6.2c-4.9,1.4-7.6,6.5-6.2,11.3
			C195,438.7,200.1,441.5,204.9,440.1z"/>
		<path class="st1" d="M194.1,373c5,0.3,9.3-3.6,9.6-8.7c0.3-5-3.6-9.3-8.7-9.6c-5-0.3-9.3,3.6-9.6,8.7
			C185.2,368.4,189.1,372.7,194.1,373z"/>
		<path class="st1" d="M605.9,375.5c-5-0.3-9.3,3.6-9.6,8.7c-0.3,5,3.6,9.3,8.7,9.6c5,0.3,9.3-3.6,9.6-8.7
			C614.8,380.1,611,375.8,605.9,375.5z"/>
		<path class="st1" d="M572.1,469.2c-2.4,4.4-0.8,10,3.6,12.4c4.4,2.4,10,0.8,12.4-3.6c2.4-4.4,0.8-10-3.6-12.4
			C580.1,463.2,574.5,464.8,572.1,469.2z"/>
		<path class="st1" d="M227.9,279.3c2.4-4.4,0.8-10-3.6-12.4s-10-0.8-12.4,3.6c-2.4,4.4-0.8,10,3.6,12.4
			C219.9,285.3,225.5,283.7,227.9,279.3z"/>
		<path class="st1" d="M390.1,570.6c-5-0.3-9.3,3.6-9.6,8.7c-0.3,5,3.6,9.3,8.7,9.6c5,0.3,9.3-3.6,9.6-8.7
			C399,575.1,395.1,570.8,390.1,570.6z"/>
		<path class="st1" d="M409.9,177.9c5,0.3,9.3-3.6,9.6-8.7c0.3-5-3.6-9.3-8.7-9.6c-5-0.3-9.3,3.6-9.6,8.7
			C401,173.4,404.9,177.7,409.9,177.9z"/>
		<path class="st1" d="M491.4,189.7c-2.4,4.4-0.8,10,3.6,12.4c4.4,2.4,10,0.8,12.4-3.6c2.4-4.4,0.8-10-3.6-12.4
			C499.4,183.7,493.8,185.3,491.4,189.7z"/>
		<path class="st1" d="M308.6,558.8c2.4-4.4,0.8-10-3.6-12.4s-10-0.8-12.4,3.6c-2.4,4.4-0.8,10,3.6,12.4
			C300.6,564.8,306.2,563.2,308.6,558.8z"/>
		<path class="st1" d="M447.2,348c-14.5-26-47.4-35.4-73.4-20.9c-26,14.5-35.4,47.4-20.9,73.4c14.5,26,47.4,35.4,73.4,20.9
			C452.3,406.9,461.7,374,447.2,348z M357.3,398c-13.1-23.5-4.6-53.3,18.9-66.4s53.3-4.6,66.4,18.9c13.1,23.5,4.6,53.3-18.9,66.4
			C400.2,430,370.4,421.6,357.3,398z"/>
		<path class="st1" d="M430,357.6c-9.2-16.5-30.1-22.5-46.6-13.3c-16.5,9.2-22.5,30.1-13.3,46.6s30.1,22.5,46.6,13.3
			C433.2,395,439.2,374.1,430,357.6z"/>
		<path class="st1" d="M524,340.8l165.8-127.9l-196,73.6c-1-1.1-2.1-2.2-3.2-3.3l47.7-83l-69.9,65.4c-4.8-3-9.8-5.7-15-8l16.7-129.4
			L416.1,247c-5.6-0.7-11.2-1.1-16.8-1.1L374.5,154l-3.2,95c-1.6,0.4-3.2,0.8-4.8,1.2L238.7,84.5l73.6,196c-1.2,1.1-2.4,2.3-3.6,3.4
			l-82.4-47.3l65,69.5c-3,4.8-5.6,9.8-7.9,14.9l-129.3-16.7l118.8,53.9c-0.7,5.6-1.1,11.2-1.1,16.8l-91.9,24.8l95,3.2
			c0.4,1.6,0.8,3.2,1.2,4.8L110.2,535.6l196-73.6c1.1,1.2,2.3,2.4,3.4,3.5L262.3,548l69.5-65c4.8,3,9.7,5.6,14.8,7.9l-16.7,129.4
			l53.9-118.7c5.6,0.7,11.2,1.1,16.8,1.1l24.8,91.8l3.2-95c1.6-0.4,3.2-0.8,4.8-1.2L561.3,664l-73.6-196c1.2-1.1,2.4-2.3,3.6-3.4
			l82.4,47.3l-65-69.5c3-4.8,5.6-9.8,7.9-14.9l129.3,16.7l-118.8-53.9c0.7-5.6,1.1-11.2,1.1-16.8l91.9-24.8l-95-3.2
			C524.8,344,524.4,342.4,524,340.8z M459.9,340.9c-4.5-8.2-10.7-15.2-17.9-20.8c-0.6-0.5-1.2-0.9-1.8-1.4c-0.8-0.6-1.6-1.1-2.4-1.7
			l-0.1,0.1c-0.1-0.1-0.2-0.2-0.4-0.2l0-0.1c-0.4-0.3-0.9-0.5-1.3-0.8c-0.2-0.1-0.4-0.3-0.6-0.4l1.9-0.7l212-79.6L459.9,340.9
			L459.9,340.9z M405.2,435.6c-1.5,0.1-3,0.2-4.5,0.3c-1.8,0-3.6-0.1-5.5-0.3c-7.6-0.6-15.1-2.5-22.1-5.9c-2.6-1.2-5.1-2.6-7.4-4.1
			c-0.1-0.1-0.2-0.1-0.3-0.2c-8-5.4-14.6-12.5-19.4-21c-4.3-7.7-6.7-16.2-7.4-24.8c-0.1-1.5-0.2-3-0.3-4.5c0-1.8,0.1-3.6,0.2-5.4
			c0.6-7.6,2.5-15.1,5.9-22.1c1.2-2.6,2.6-5.1,4.1-7.4c0.1-0.2,0.2-0.3,0.3-0.5c5.4-8,12.5-14.5,21-19.3c7.7-4.3,16.1-6.7,24.8-7.4
			c1.5-0.1,3-0.2,4.5-0.3c1.8,0,3.6,0.1,5.5,0.3c7.6,0.6,15,2.5,22.1,5.9c2.6,1.2,5.1,2.6,7.4,4.1c0.1,0.1,0.2,0.1,0.3,0.2
			c8,5.4,14.6,12.5,19.4,21c4.3,7.7,6.7,16.2,7.4,24.8c0.1,1.5,0.2,3,0.3,4.5c0,1.8-0.1,3.6-0.3,5.4c-0.6,7.6-2.5,15.1-5.9,22.1
			c-1.2,2.6-2.6,5.1-4.1,7.4c-0.1,0.2-0.2,0.3-0.3,0.5c-5.4,8-12.5,14.5-21,19.2C422.3,432.5,413.9,434.8,405.2,435.6z M465.8,393
			c0.8-2.9,1.4-5.8,1.9-8.8l10.9-8.4l123,55.9L465.8,393z M490.2,287.9l-42.8,16.1l5.5-42.7C466.7,267.6,479.3,276.6,490.2,287.9z
			 M418.7,308.4c-2.9-0.8-5.8-1.4-8.8-1.9l-8.4-10.9l55.9-123L418.7,308.4z M414.6,250.3l-17.8,39.2l-27.9-36.2
			C384,249.4,399.5,248.5,414.6,250.3z M366.7,314.3c-8.1,4.5-15.1,10.6-20.7,17.8c-0.3,0.4-0.6,0.8-0.9,1.1c-0.8,1-1.5,2.1-2.2,3.1
			c0,0,0,0,0,0c0,0,0,0,0,0l0.1,0.1c-0.1,0.1-0.2,0.3-0.3,0.4l-0.1,0c-0.3,0.4-0.5,0.8-0.7,1.2c-0.1,0.2-0.3,0.4-0.5,0.7l-0.7-1.8
			l-3.4-9l0,0l-76.2-203L366.7,314.3L366.7,314.3z M313.6,284.1l16.1,42.8l-42.7-5.5C293.4,307.6,302.3,294.9,313.6,284.1z
			 M198.4,316.9l135.8,38.7c-0.8,2.9-1.4,5.8-1.9,8.8l-10.9,8.4L198.4,316.9L198.4,316.9z M276,359.6l39.2,17.8l-36.2,27.9
			C275.2,390.2,274.3,374.8,276,359.6z M340.1,407.6c4.5,8.2,10.7,15.2,17.9,20.8c0.6,0.5,1.2,0.9,1.8,1.4c0.8,0.6,1.6,1.1,2.4,1.7
			l0.1-0.1c0.1,0.1,0.2,0.2,0.4,0.2l0,0.1c0.4,0.3,0.9,0.5,1.3,0.8c0.2,0.1,0.4,0.3,0.6,0.4l-1.9,0.7l-212,79.6L340.1,407.6z
			 M309.8,460.7l42.8-16.1l-5.5,42.7C333.3,480.9,320.7,471.9,309.8,460.7z M381.3,440.1c2.9,0.8,5.8,1.4,8.8,1.9l8.4,10.9
			l-55.9,123L381.3,440.1z M385.4,498.2l17.8-39.2l27.9,36.2C416,499.1,400.5,500,385.4,498.2z M433.3,434
			c7.6-4.2,14.4-9.9,19.9-16.7l0,0c0-0.1,0.1-0.1,0.1-0.1c0.1-0.1,0.2-0.3,0.3-0.4c0.4-0.5,0.8-1,1.2-1.5c0.8-1,1.6-2.1,2.3-3.2
			c0,0,0,0,0,0l0,0L457,412c0.1-0.1,0.2-0.2,0.2-0.4l0.1,0c0.3-0.4,0.5-0.8,0.7-1.2c0.1-0.2,0.3-0.4,0.5-0.7l0.2,0.7l3.8,10.2l0,0
			l76.2,203L433.3,434z M486.4,464.4l-16.1-42.8l42.7,5.5C506.6,440.9,497.7,453.6,486.4,464.4z M484.7,371.1l36.2-27.9
			c3.9,15.1,4.8,30.6,3,45.7L484.7,371.1z"/>
	</g>
</g>
</svg>
