<?xml version="1.0" encoding="utf-8"?>
<!-- Generator: Adobe Illustrator 27.4.0, SVG Export Plug-In . SVG Version: 6.00 Build 0)  -->
<svg version="1.1" id="Capa_1" xmlns="http://www.w3.org/2000/svg" xmlns:xlink="http://www.w3.org/1999/xlink" x="0px" y="0px"
	 viewBox="0 0 512 512" style="enable-background:new 0 0 512 512;" xml:space="preserve">
<style type="text/css">
	.st0{fill:#1D884D;}
</style>
<g>
	<path class="st0" d="M318.4,297v-17.4c0-12.7-10.4-23.1-23.1-23.1H287v-24.1c0-12.4-5.9-23.5-14.9-30.6c4.4-4.2,7.1-10.1,7.1-16.6
		c0-12.7-10.4-23.1-23.1-23.1c-12.7,0-23.1,10.4-23.1,23.1c0,3.8,0.9,7.4,2.5,10.5c-15.2,5.3-26.1,19.7-26.1,36.7v12.1
		c-18.8,7.7-31.5,26.2-31.5,46.9c0,27.9,22.7,50.6,50.6,50.6s50.6-22.7,50.6-50.6c0-7.1-1.5-13.9-4.2-20.2h20.4
		c4.6,0,8.4,3.8,8.4,8.4V297c-9.1,3.1-15.7,11.7-15.7,21.9c0,12.7,10.4,23.1,23.1,23.1s23.1-10.4,23.1-23.1
		C334.2,308.8,327.6,300.1,318.4,297z M256,176.8c4.6,0,8.4,3.8,8.4,8.4c0,4.6-3.8,8.4-8.4,8.4s-8.4-3.8-8.4-8.4
		S251.4,176.8,256,176.8z M228.5,327.3c-19.8,0-35.9-16.1-35.9-35.9c0-12.5,6.6-23.9,16.7-30.4v10.7c0,12.7,10.4,23.1,23.1,23.1
		c12.7,0,23.1-10.4,23.1-23.1v-4c5.6,6.4,8.9,14.7,8.9,23.6C264.4,311.2,248.3,327.3,228.5,327.3L228.5,327.3z M255.5,248.6v-16.2
		c0-4.1-3.3-7.4-7.4-7.4s-7.4,3.3-7.4,7.4v39.3c0,4.6-3.8,8.4-8.4,8.4c-4.6,0-8.4-3.8-8.4-8.4v-39.3c0-13.3,10.8-24.1,24.1-24.1
		c13.3,0,24.1,10.8,24.1,24.1v24.1H265C262.3,253.5,259.1,250.8,255.5,248.6z M311.1,327.3c-4.6,0-8.4-3.8-8.4-8.4s3.8-8.4,8.4-8.4
		s8.4,3.8,8.4,8.4C319.4,323.5,315.7,327.3,311.1,327.3z"/>
	<g>
		<path class="st0" d="M256,396.7c-77.6,0-140.7-63.1-140.7-140.7S178.4,115.3,256,115.3S396.7,178.4,396.7,256
			S333.6,396.7,256,396.7z M256,134.9c-66.8,0-121.1,54.3-121.1,121.1S189.2,377.1,256,377.1S377.1,322.8,377.1,256
			S322.8,134.9,256,134.9z"/>
		<path class="st0" d="M256,512c-68.4,0-132.7-26.6-181-75S0,324.4,0,256S26.6,123.3,75,75S187.6,0,256,0s132.7,26.6,181,75
			s75,112.6,75,181s-26.6,132.7-75,181S324.4,512,256,512z M256,19.6c-130.3,0-236.4,106-236.4,236.4s106,236.4,236.4,236.4
			s236.4-106,236.4-236.4S386.3,19.6,256,19.6z"/>
		<path class="st0" d="M256,512c-49.4,0-95.5-27.1-130-76.3c-33.7-48.1-52.3-112-52.3-179.7S92.3,124.4,126,76.3
			C160.5,27.1,206.6,0,256,0s95.5,27.1,130,76.3c33.7,48.1,52.3,112,52.3,179.7c0,67.8-18.6,131.6-52.3,179.7
			C351.5,484.9,305.4,512,256,512z M256,19.6c-89.7,0-162.6,106-162.6,236.4s73,236.4,162.6,236.4c89.7,0,162.7-106,162.7-236.4
			S345.7,19.6,256,19.6z"/>
		<path class="st0" d="M159.5,129.6H50.9V110h108.6c5.4,0,9.8,4.4,9.8,9.8l0,0C169.3,125.2,164.9,129.6,159.5,129.6z"/>
		<path class="st0" d="M246.2,90.3V4.8h19.6v85.5c0,5.4-4.4,9.8-9.8,9.8l0,0C250.6,100.1,246.2,95.7,246.2,90.3z"/>
		<path class="st0" d="M246.2,507.2v-85.5c0-5.4,4.4-9.8,9.8-9.8l0,0c5.4,0,9.8,4.4,9.8,9.8v85.5H246.2z"/>
		<path class="st0" d="M465,129.6H360.8c-5.4,0-9.8-4.4-9.8-9.8l0,0c0-5.4,4.4-9.8,9.8-9.8H465V129.6z"/>
		<path class="st0" d="M159.5,402H50.9v-19.6h108.6c5.4,0,9.8,4.4,9.8,9.8l0,0C169.3,397.6,164.9,402,159.5,402z"/>
		<rect x="4.8" y="246.2" class="st0" width="85.8" height="19.6"/>
		<rect x="421.4" y="246.2" class="st0" width="85.8" height="19.6"/>
		<path class="st0" d="M464.3,402H360.8c-5.4,0-9.8-4.4-9.8-9.8l0,0c0-5.4,4.4-9.8,9.8-9.8h103.6V402H464.3z"/>
	</g>
</g>
</svg>
