<?xml version="1.0" encoding="utf-8"?>
<!-- Generator: Adobe Illustrator 27.4.0, SVG Export Plug-In . SVG Version: 6.00 Build 0)  -->
<svg version="1.1" id="Capa_1" xmlns="http://www.w3.org/2000/svg" xmlns:xlink="http://www.w3.org/1999/xlink" x="0px" y="0px"
	 viewBox="0 0 512 512" style="enable-background:new 0 0 512 512;" xml:space="preserve">
<style type="text/css">
	.st0{fill:#1D884D;}
</style>
<g id="XMLID_369_">
	<path id="XMLID_370_" class="st0" d="M151.4,61.8c-54.9,0-99.6,44.7-99.6,99.6c0,54.9,44.7,99.6,99.6,99.6c5.5,0,10-4.5,10-10
		s-4.5-10-10-10c-43.9,0-79.6-35.7-79.6-79.6c0-43.9,35.7-79.6,79.6-79.6c43.9,0,79.6,35.7,79.6,79.6c0,5.5,4.5,10,10,10
		s10-4.5,10-10C251.1,106.5,206.4,61.8,151.4,61.8z"/>
	<path id="XMLID_371_" class="st0" d="M165.9,194.6l-23-3.3c-5.5-0.8-10.5,3-11.3,8.5s3,10.5,8.5,11.3l23,3.3
		c20.1,2.9,33.8,21.6,30.5,41.6l-5.8,34.5c-2.9,17.5-17.9,30.1-35.6,30.1c-28.2,0-52.1,21.1-55.6,49.1l-4.9,39.3
		c-0.7,5.9,3.9,11.2,9.9,11.2c5,0,9.3-3.7,9.9-8.8l4.9-39.3c2.2-18,17.6-31.6,35.8-31.6c27.5,0,50.8-19.7,55.3-46.8l5.8-34.5
		C218.5,228.3,197.1,199.1,165.9,194.6L165.9,194.6z"/>
	<path id="XMLID_372_" class="st0" d="M475.9,86.7c-23.1-22.5-53.4-34.9-85.4-34.9c-29.2,0-55.9,10.5-76.7,27.9
		C282.4,30.5,229.2,0.3,172.2,0C127-0.2,83.9,17.7,51,50.5c-45.2,45-60.4,106.9-45.5,164c11,42,16.4,80.1,16.4,116.4v74.5
		c0,57.9,46.9,106.6,104.6,106.6c26.7,0,52.9-11.6,74-32.6c19.8-19.8,30.6-46,30.6-74c0-39.3,17.1-77.7,48.5-103.8
		c13.4-11.1,24.8-24.1,34.1-38.6c20.8,17.4,47.5,27.9,76.7,27.9c32,0,62.4-12.4,85.4-34.9c23.3-22.7,36.1-52.8,36.1-84.6
		C512,139.5,499.2,109.4,475.9,86.7L475.9,86.7z M266.9,286.2c-35.2,29.3-55.7,73.1-55.7,119.2c0,22.6-8.8,43.8-24.8,59.8
		c-10,10-31.1,26.8-59.8,26.8c-45.9,0-84.6-39.7-84.6-86.6v-74.5c0-38.1-5.6-77.8-17-121.5C11.4,157.9,26,103.6,65.1,64.6
		c29.1-29,67.1-44.8,106.9-44.6c51.6,0.2,99.7,28.5,127.1,74.2c-37.8,44.6-37.8,109.8,0,154.4C290.6,262.8,279.8,275.4,266.9,286.2
		L266.9,286.2z M390.5,270.9c-54.9,0-99.6-44.7-99.6-99.5c0-54.9,44.7-99.6,99.6-99.6c56,0,101.5,44.7,101.5,99.6
		C492,226.2,446.5,270.9,390.5,270.9z"/>
	<path id="XMLID_376_" class="st0" d="M446.8,115c-3.9-3.9-10.2-3.9-14.1,0l-42.2,42.2L348.2,115c-3.9-3.9-10.2-3.9-14.1,0
		c-3.9,3.9-3.9,10.2,0,14.1l42.2,42.2l-42.2,42.2c-3.9,3.9-3.9,10.2,0,14.1c3.9,3.9,10.2,3.9,14.1,0l42.2-42.2l42.2,42.2
		c3.9,3.9,10.2,3.9,14.1,0c3.9-3.9,3.9-10.2,0-14.1l-42.2-42.2l42.2-42.2C450.7,125.2,450.7,118.9,446.8,115L446.8,115z"/>
</g>
</svg>
