<?xml version="1.0" encoding="utf-8"?>
<!-- Generator: Adobe Illustrator 27.4.0, SVG Export Plug-In . SVG Version: 6.00 Build 0)  -->
<svg version="1.1" id="Capa_1" xmlns="http://www.w3.org/2000/svg" xmlns:xlink="http://www.w3.org/1999/xlink" x="0px" y="0px"
	 viewBox="0 0 512 512" style="enable-background:new 0 0 512 512;" xml:space="preserve">
<style type="text/css">
	.st0{fill:#1D884D;}
</style>
<g id="XMLID_437_">
	<path id="XMLID_438_" class="st0" d="M509.7,249.6c-1.2-1.4-29.2-34.9-74.4-68.9c-18.1-13.6-36.5-25.4-54.8-35.1l77.5-77.5
		c3.9-3.9,3.9-10.2,0-14.1c-3.9-3.9-10.2-3.9-14.1,0l-82.3,82.3c-2.2-1-4.4-2-6.6-3c-33.7-14.5-67-21.8-99-21.8s-65.3,7.3-99,21.8
		c-26.7,11.5-53.7,27.4-80.3,47.5c-45.1,34-73.2,67.5-74.4,68.9c-3.1,3.7-3.1,9.1,0,12.8c1.2,1.4,29.2,34.9,74.4,68.9
		c18.1,13.6,36.5,25.4,54.8,35.1l-77.5,77.5c-3.9,3.9-3.9,10.2,0,14.1c2,2,4.5,2.9,7.1,2.9s5.1-1,7.1-2.9l82.3-82.3
		c2.2,1,4.4,2,6.6,3c33.7,14.5,67,21.8,99,21.8c32,0,65.3-7.3,99-21.8c26.7-11.5,53.7-27.4,80.3-47.5c45.1-34,73.2-67.5,74.4-68.9
		C512.8,258.7,512.8,253.3,509.7,249.6L509.7,249.6z M89.1,315.6c-32-24-55.5-48.4-65.7-59.6c10.1-11.2,33.4-35.3,65.4-59.3
		c39.6-29.8,100.7-65.3,167.3-65.3c32,0,62.7,8.2,90.4,20l-23,23c-18.9-15.7-42.5-24.2-67.4-24.2c0,0,0,0,0,0
		c-28.2,0-54.8,11-74.8,31c-38.8,38.8-41.1,100.6-6.7,142.1l-28.2,28.2C124.4,340.4,105,327.5,89.1,315.6L89.1,315.6z M224.8,273.1
		c-2.8-5.2-4.4-11-4.4-17.1c0-9.5,3.7-18.4,10.4-25.2c6.7-6.7,15.7-10.4,25.2-10.4c6.1,0,11.9,1.5,17.1,4.4L224.8,273.1z
		 M287.6,210.3c-9.2-6.4-20.1-9.8-31.6-9.8c0,0,0,0,0,0c-14.8,0-28.8,5.8-39.3,16.3c-19.3,19.3-21.4,49.2-6.4,70.9l-21.6,21.6
		c-26.6-33.6-24.4-82.7,6.6-113.8c16.2-16.2,37.7-25.1,60.6-25.1c19.5,0,38.1,6.5,53.1,18.5L287.6,210.3z M365.7,160.4
		c21.9,11.1,41.3,24,57.2,36c32,24,55.5,48.4,65.7,59.6c-10.2,11.2-33.7,35.5-65.7,59.6c-39.5,29.7-100.5,65-166.9,65
		c-32,0-62.7-8.2-90.4-20L365.7,160.4z"/>
</g>
</svg>
