<?xml version="1.0" encoding="utf-8"?>
<!-- Generator: Adobe Illustrator 27.4.0, SVG Export Plug-In . SVG Version: 6.00 Build 0)  -->
<svg version="1.1" id="Capa_1" xmlns="http://www.w3.org/2000/svg" xmlns:xlink="http://www.w3.org/1999/xlink" x="0px" y="0px"
	 viewBox="0 0 527.7 512" style="enable-background:new 0 0 527.7 512;" xml:space="preserve">
<style type="text/css">
	.st0{fill:#1D884D;}
</style>
<path class="st0" d="M422.9,513.9l-49.7-43.7l-81.7,23.4l-64.9-24.9l-15.2-35.6l-48.7-28.1L145.6,426l-25-12.4l-26.7-13l1.6-27.2
	l-36.4-22.2l-27.9-0.3L20.3,206l-19-28.4L23.1,76.6L231.4,0l24.9,43.9l11.4,1.6l17.4-10.9l146.4,0.6l45.8,24L507,181.1l-33,37.3
	l46.7,103l6.9,37.8l-67,87.1l12.9,42.5L422.9,513.9z M378.4,447.1l47.8,42l22.4-11.1l-10.9-35.9l67.9-88.3l-4.8-26.2l-51.2-112.9
	l34.7-39.3L459.4,73.3l-33-17.3L291,55.4l-18.7,11.7l-29-4.1l-21.2-37.4L40.9,92.1l-17.6,81.2l17.2,25.6l9.9,131.5l14.6,0.2
	l51.9,31.6l-1.5,25.8l14.3,7L140,400l17.8-21.8l69.9,40.4l14.5,33.8l50.2,19.2L378.4,447.1z"/>
<path class="st0" d="M329.1,283.9v-18.1c0-13.2-10.8-24-24-24h-8.6v-25c0-12.9-6.1-24.4-15.5-31.7c4.6-4.4,7.4-10.5,7.4-17.2
	c0-13.2-10.8-24-24-24s-24,10.8-24,24c0,3.9,0.9,7.7,2.6,10.9c-15.8,5.5-27.1,20.4-27.1,38.1v12.6c-19.5,8-32.7,27.2-32.7,48.7
	c0,28.9,23.6,52.5,52.5,52.5s52.5-23.6,52.5-52.5c0-7.4-1.6-14.4-4.4-21h21.2c4.8,0,8.7,3.9,8.7,8.7v18.1
	c-9.4,3.2-16.3,12.1-16.3,22.7c0,13.2,10.8,24,24,24c13.2,0,24-10.8,24-24C345.5,296.1,338.7,287.1,329.1,283.9z M264.4,159.2
	c4.8,0,8.7,3.9,8.7,8.7c0,4.8-3.9,8.7-8.7,8.7c-4.8,0-8.7-3.9-8.7-8.7C255.7,163.1,259.6,159.2,264.4,159.2z M235.8,315.3
	c-20.5,0-37.2-16.7-37.2-37.2c0-13,6.8-24.8,17.3-31.5v11.1c0,13.2,10.8,24,24,24c13.2,0,24-10.8,24-24v-4.2
	c5.8,6.6,9.2,15.3,9.2,24.5C273.1,298.6,256.4,315.3,235.8,315.3L235.8,315.3z M263.9,233.6v-16.8c0-4.3-3.4-7.7-7.7-7.7
	c-4.3,0-7.7,3.4-7.7,7.7v40.8c0,4.8-3.9,8.7-8.7,8.7c-4.8,0-8.7-3.9-8.7-8.7v-40.8c0-13.8,11.2-25,25-25c13.8,0,25,11.2,25,25v25
	h-7.4C270.9,238.7,267.6,235.9,263.9,233.6z M321.6,315.3c-4.8,0-8.7-3.9-8.7-8.7s3.9-8.7,8.7-8.7c4.8,0,8.7,3.9,8.7,8.7
	C330.2,311.4,326.3,315.3,321.6,315.3z"/>
</svg>
