<?xml version="1.0" encoding="utf-8"?>
<!-- Generator: Adobe Illustrator 27.3.1, SVG Export Plug-In . SVG Version: 6.00 Build 0)  -->
<svg version="1.1" id="Warstwa_1" xmlns="http://www.w3.org/2000/svg" xmlns:xlink="http://www.w3.org/1999/xlink" x="0px" y="0px"
	 viewBox="0 0 1133.86 231.32" style="enable-background:new 0 0 1133.86 231.32;" xml:space="preserve">
<style type="text/css">
	.st0{fill:#009245;}
	.st1{clip-path:url(#SVGID_00000134935212175180962080000006655129174477311620_);fill:none;}
	.st2{fill:#006837;}
</style>
<g>
	<path class="st0" d="M393,198.48c1.91-0.29,4.18-0.5,6.66-0.5c4.5,0,7.7,1.04,9.83,3.02c2.16,1.98,3.42,4.79,3.42,8.71
		c0,3.96-1.22,7.2-3.49,9.43c-2.27,2.27-6.01,3.49-10.73,3.49c-2.23,0-4.1-0.11-5.69-0.29V198.48z M396.13,219.93
		c0.79,0.14,1.94,0.18,3.17,0.18c6.7,0,10.33-3.74,10.33-10.29c0.04-5.72-3.2-9.36-9.83-9.36c-1.62,0-2.84,0.14-3.67,0.32V219.93z"
		/>
	<path class="st0" d="M416.98,198.16h3.13v21.63h10.37v2.63h-13.5V198.16z"/>
	<path class="st0" d="M437.89,214.79l-2.52,7.63h-3.24l8.24-24.26h3.78l8.28,24.26h-3.35l-2.59-7.63H437.89z M445.85,212.34
		l-2.38-6.98c-0.54-1.58-0.9-3.02-1.26-4.43h-0.07c-0.36,1.44-0.76,2.92-1.22,4.39l-2.38,7.02H445.85z"/>
	<path class="st0" d="M484.37,210.03c0,8.35-5.08,12.78-11.27,12.78c-6.41,0-10.91-4.97-10.91-12.31c0-7.7,4.79-12.74,11.27-12.74
		C480.08,197.76,484.37,202.83,484.37,210.03z M465.54,210.43c0,5.18,2.81,9.83,7.74,9.83c4.97,0,7.77-4.57,7.77-10.08
		c0-4.82-2.52-9.86-7.74-9.86C468.13,200.31,465.54,205.1,465.54,210.43z"/>
	<path class="st0" d="M488,218.6c1.4,0.86,3.46,1.58,5.62,1.58c3.2,0,5.08-1.69,5.08-4.14c0-2.27-1.3-3.56-4.57-4.82
		c-3.96-1.4-6.41-3.46-6.41-6.88c0-3.78,3.13-6.59,7.85-6.59c2.48,0,4.28,0.58,5.36,1.19l-0.86,2.56c-0.79-0.43-2.41-1.15-4.61-1.15
		c-3.31,0-4.57,1.98-4.57,3.64c0,2.27,1.48,3.38,4.82,4.68c4.1,1.58,6.19,3.56,6.19,7.13c0,3.74-2.77,6.98-8.49,6.98
		c-2.34,0-4.9-0.68-6.19-1.55L488,218.6z"/>
	<path class="st0" d="M526.92,210.03c0,8.35-5.08,12.78-11.27,12.78c-6.41,0-10.91-4.97-10.91-12.31c0-7.7,4.79-12.74,11.27-12.74
		C522.63,197.76,526.92,202.83,526.92,210.03z M508.09,210.43c0,5.18,2.81,9.83,7.74,9.83c4.97,0,7.77-4.57,7.77-10.08
		c0-4.82-2.52-9.86-7.74-9.86C510.68,200.31,508.09,205.1,508.09,210.43z M521.09,192.58l-4.57,4.17h-2.59l3.35-4.17H521.09z"/>
	<path class="st0" d="M530.99,198.48c1.37-0.29,3.53-0.5,5.72-0.5c3.13,0,5.15,0.54,6.66,1.76c1.26,0.94,2.02,2.38,2.02,4.28
		c0,2.34-1.55,4.39-4.1,5.33v0.07c2.3,0.58,5,2.48,5,6.08c0,2.09-0.83,3.67-2.05,4.86c-1.69,1.55-4.43,2.27-8.39,2.27
		c-2.16,0-3.82-0.14-4.86-0.29V198.48z M534.12,208.41h2.84c3.31,0,5.26-1.73,5.26-4.07c0-2.84-2.16-3.96-5.33-3.96
		c-1.44,0-2.27,0.11-2.77,0.22V208.41z M534.12,220.04c0.61,0.11,1.51,0.14,2.63,0.14c3.24,0,6.23-1.19,6.23-4.72
		c0-3.31-2.84-4.68-6.26-4.68h-2.59V220.04z"/>
	<path class="st0" d="M556.48,220.58l13.46-19.69v-0.11h-12.31v-2.63h16.38v1.91l-13.39,19.62v0.11h13.57v2.63h-17.71V220.58z"/>
	<path class="st0" d="M585.67,222.42v-24.26h3.42l7.77,12.27c1.8,2.84,3.2,5.4,4.36,7.88l0.07-0.04c-0.29-3.24-0.36-6.19-0.36-9.97
		v-10.15h2.95v24.26h-3.17l-7.7-12.31c-1.69-2.7-3.31-5.47-4.54-8.1l-0.11,0.04c0.18,3.06,0.25,5.97,0.25,10.01v10.37H585.67z"/>
	<path class="st0" d="M612.49,198.16v24.26h-3.13v-24.26H612.49z"/>
	<path class="st0" d="M630.52,211.04h-9.43v8.75h10.51v2.63h-13.64v-24.26h13.1v2.63h-9.97v7.67h9.43V211.04z"/>
	<path class="st0" d="M635.67,198.44c1.51-0.25,3.49-0.47,6.01-0.47c3.1,0,5.36,0.72,6.8,2.02c1.33,1.15,2.12,2.92,2.12,5.08
		c0,2.2-0.65,3.92-1.87,5.18c-1.66,1.76-4.36,2.66-7.42,2.66c-0.94,0-1.8-0.04-2.52-0.22v9.72h-3.13V198.44z M638.81,210.14
		c0.68,0.18,1.55,0.25,2.59,0.25c3.78,0,6.08-1.84,6.08-5.18c0-3.2-2.27-4.75-5.72-4.75c-1.37,0-2.41,0.11-2.95,0.25V210.14z"/>
	<path class="st0" d="M667.39,211.04h-9.43v8.75h10.51v2.63h-13.64v-24.26h13.1v2.63h-9.97v7.67h9.43V211.04z"/>
	<path class="st0" d="M672.68,222.42v-9.72l-3.02,2.23v-2.45l3.02-2.2v-12.13h3.13v9.97l4.82-3.49v2.48l-4.82,3.46v9.21h10.37v2.63
		H672.68z"/>
	<path class="st0" d="M689.67,222.42v-24.26h3.42l7.78,12.27c1.8,2.84,3.2,5.4,4.36,7.88l0.07-0.04c-0.29-3.24-0.36-6.19-0.36-9.97
		v-10.15h2.95v24.26h-3.17l-7.7-12.31c-1.69-2.7-3.31-5.47-4.54-8.1l-0.11,0.04c0.18,3.06,0.25,5.97,0.25,10.01v10.37H689.67z"/>
	<path class="st0" d="M734.09,210.03c0,8.35-5.08,12.78-11.27,12.78c-6.41,0-10.91-4.97-10.91-12.31c0-7.7,4.79-12.74,11.27-12.74
		C729.81,197.76,734.09,202.83,734.09,210.03z M715.27,210.43c0,5.18,2.81,9.83,7.74,9.83c4.97,0,7.77-4.57,7.77-10.08
		c0-4.82-2.52-9.86-7.74-9.86C717.86,200.31,715.27,205.1,715.27,210.43z"/>
	<path class="st0" d="M737.73,218.6c1.4,0.86,3.46,1.58,5.62,1.58c3.2,0,5.08-1.69,5.08-4.14c0-2.27-1.3-3.56-4.57-4.82
		c-3.96-1.4-6.41-3.46-6.41-6.88c0-3.78,3.13-6.59,7.85-6.59c2.48,0,4.28,0.58,5.36,1.19l-0.86,2.56c-0.79-0.43-2.41-1.15-4.61-1.15
		c-3.31,0-4.57,1.98-4.57,3.64c0,2.27,1.48,3.38,4.82,4.68c4.1,1.58,6.19,3.56,6.19,7.13c0,3.74-2.77,6.98-8.5,6.98
		c-2.34,0-4.9-0.68-6.19-1.55L737.73,218.6z"/>
	<path class="st0" d="M755.91,198.44c1.51-0.25,3.49-0.47,6.01-0.47c3.1,0,5.36,0.72,6.8,2.02c1.33,1.15,2.12,2.92,2.12,5.08
		c0,2.2-0.65,3.92-1.87,5.18c-1.66,1.76-4.36,2.66-7.42,2.66c-0.94,0-1.8-0.04-2.52-0.22v9.72h-3.13V198.44z M759.04,210.14
		c0.68,0.18,1.55,0.25,2.59,0.25c3.78,0,6.08-1.84,6.08-5.18c0-3.2-2.27-4.75-5.72-4.75c-1.37,0-2.41,0.11-2.95,0.25V210.14z"/>
	<path class="st0" d="M775.07,198.48c1.58-0.32,3.85-0.5,6.01-0.5c3.35,0,5.51,0.61,7.02,1.98c1.22,1.08,1.91,2.74,1.91,4.61
		c0,3.2-2.02,5.33-4.57,6.19v0.11c1.87,0.65,2.99,2.38,3.56,4.9c0.79,3.38,1.37,5.72,1.87,6.66h-3.24c-0.4-0.68-0.94-2.77-1.62-5.79
		c-0.72-3.35-2.02-4.61-4.86-4.72h-2.95v10.51h-3.13V198.48z M778.2,209.53h3.2c3.35,0,5.47-1.83,5.47-4.61
		c0-3.13-2.27-4.5-5.58-4.54c-1.51,0-2.59,0.14-3.1,0.29V209.53z"/>
	<path class="st0" d="M798.54,214.79l-2.52,7.63h-3.24l8.24-24.26h3.78l8.28,24.26h-3.35l-2.59-7.63H798.54z M806.49,212.34
		l-2.38-6.98c-0.54-1.58-0.9-3.02-1.26-4.43h-0.07c-0.36,1.44-0.76,2.92-1.22,4.39l-2.38,7.02H806.49z"/>
	<path class="st0" d="M818.7,222.42l-6.16-24.26h3.31l2.88,12.27c0.72,3.02,1.37,6.05,1.8,8.39h0.07c0.4-2.41,1.15-5.29,1.98-8.42
		l3.24-12.24h3.28l2.95,12.31c0.68,2.88,1.33,5.76,1.69,8.31h0.07c0.5-2.66,1.19-5.36,1.94-8.39l3.2-12.24h3.2l-6.88,24.26h-3.28
		l-3.06-12.63c-0.76-3.1-1.26-5.47-1.58-7.92h-0.07c-0.43,2.41-0.97,4.79-1.87,7.92l-3.46,12.63H818.7z"/>
	<path class="st0" d="M845.19,222.42v-24.26h3.42l7.78,12.27c1.8,2.84,3.2,5.4,4.36,7.88l0.07-0.04c-0.29-3.24-0.36-6.19-0.36-9.97
		v-10.15h2.95v24.26h-3.17l-7.7-12.31c-1.69-2.7-3.31-5.47-4.54-8.1l-0.11,0.04c0.18,3.06,0.25,5.97,0.25,10.01v10.37H845.19z"/>
	<path class="st0" d="M889.61,210.03c0,8.35-5.08,12.78-11.27,12.78c-6.41,0-10.91-4.97-10.91-12.31c0-7.7,4.79-12.74,11.27-12.74
		C885.33,197.76,889.61,202.83,889.61,210.03z M870.79,210.43c0,5.18,2.81,9.83,7.74,9.83c4.97,0,7.77-4.57,7.77-10.08
		c0-4.82-2.52-9.86-7.74-9.86C873.38,200.31,870.79,205.1,870.79,210.43z"/>
	<path class="st0" d="M893.25,218.6c1.4,0.86,3.46,1.58,5.62,1.58c3.2,0,5.08-1.69,5.08-4.14c0-2.27-1.3-3.56-4.57-4.82
		c-3.96-1.4-6.41-3.46-6.41-6.88c0-3.78,3.13-6.59,7.85-6.59c2.48,0,4.28,0.58,5.36,1.19l-0.86,2.56c-0.79-0.43-2.41-1.15-4.61-1.15
		c-3.31,0-4.57,1.98-4.57,3.64c0,2.27,1.48,3.38,4.82,4.68c4.1,1.58,6.19,3.56,6.19,7.13c0,3.74-2.77,6.98-8.5,6.98
		c-2.34,0-4.9-0.68-6.19-1.55L893.25,218.6z M905.53,192.58l-4.61,4.17h-2.56l3.31-4.17H905.53z"/>
	<path class="st0" d="M928.39,221.62c-1.15,0.58-3.46,1.15-6.41,1.15c-6.84,0-11.99-4.32-11.99-12.27c0-7.6,5.15-12.74,12.67-12.74
		c3.02,0,4.93,0.65,5.76,1.08l-0.76,2.56c-1.19-0.58-2.88-1.01-4.9-1.01c-5.69,0-9.47,3.64-9.47,10.01c0,5.94,3.42,9.75,9.32,9.75
		c1.91,0,3.85-0.4,5.11-1.01L928.39,221.62z"/>
	<path class="st0" d="M935.44,198.16v24.26h-3.13v-24.26H935.44z"/>
	<path class="st0" d="M944.84,214.79l-2.52,7.63h-3.24l8.24-24.26h3.78l8.28,24.26h-3.35l-2.59-7.63H944.84z M952.79,212.34
		l-2.38-6.98c-0.54-1.58-0.9-3.02-1.26-4.43h-0.07c-0.36,1.44-0.76,2.92-1.22,4.39l-2.38,7.02H952.79z"/>
	<path class="st0" d="M983.25,211.76c-0.18-3.38-0.4-7.45-0.36-10.47h-0.11c-0.83,2.84-1.84,5.87-3.06,9.21l-4.28,11.77h-2.38
		l-3.92-11.55c-1.15-3.42-2.12-6.55-2.81-9.43h-0.07c-0.07,3.02-0.25,7.09-0.47,10.73l-0.65,10.4h-2.99l1.69-24.26h4l4.14,11.73
		c1.01,2.99,1.84,5.65,2.45,8.17h0.11c0.61-2.45,1.48-5.11,2.56-8.17l4.32-11.73h4l1.51,24.26h-3.06L983.25,211.76z"/>
	<path class="st0" d="M994.88,198.16v24.26h-3.13v-24.26H994.88z"/>
	<path class="st0" d="M1006.87,222.42v-1.94l2.48-2.41c5.98-5.69,8.67-8.71,8.71-12.24c0-2.38-1.15-4.57-4.64-4.57
		c-2.12,0-3.89,1.08-4.97,1.98l-1.01-2.23c1.62-1.37,3.92-2.38,6.62-2.38c5.04,0,7.16,3.46,7.16,6.8c0,4.32-3.13,7.81-8.06,12.56
		l-1.87,1.73v0.07h10.51v2.63H1006.87z"/>
	<path class="st0" d="M1040.89,210.47c0,7.96-2.95,12.35-8.13,12.35c-4.57,0-7.67-4.28-7.74-12.02c0-7.85,3.38-12.17,8.13-12.17
		C1038.08,198.62,1040.89,203.01,1040.89,210.47z M1028.18,210.83c0,6.08,1.87,9.54,4.75,9.54c3.24,0,4.79-3.78,4.79-9.75
		c0-5.76-1.48-9.54-4.75-9.54C1030.2,201.07,1028.18,204.45,1028.18,210.83z"/>
	<path class="st0" d="M1043.8,222.42v-1.94l2.48-2.41c5.98-5.69,8.67-8.71,8.71-12.24c0-2.38-1.15-4.57-4.64-4.57
		c-2.12,0-3.89,1.08-4.97,1.98l-1.01-2.23c1.62-1.37,3.92-2.38,6.62-2.38c5.04,0,7.16,3.46,7.16,6.8c0,4.32-3.13,7.81-8.06,12.56
		l-1.87,1.73v0.07h10.51v2.63H1043.8z"/>
	<path class="st0" d="M1063.03,218.78c0.9,0.58,2.99,1.48,5.18,1.48c4.07,0,5.33-2.59,5.29-4.54c-0.04-3.28-2.99-4.68-6.05-4.68
		h-1.76v-2.38h1.76c2.3,0,5.22-1.19,5.22-3.96c0-1.87-1.19-3.53-4.1-3.53c-1.87,0-3.67,0.83-4.68,1.55l-0.83-2.3
		c1.22-0.9,3.6-1.8,6.12-1.8c4.61,0,6.7,2.74,6.7,5.58c0,2.41-1.44,4.46-4.32,5.51v0.07c2.88,0.58,5.22,2.74,5.22,6.01
		c0,3.74-2.92,7.02-8.53,7.02c-2.63,0-4.93-0.83-6.08-1.58L1063.03,218.78z"/>
	<path class="st0" d="M1091,203.27v8.46h8.13v2.16H1091v8.53h-2.3v-8.53h-8.14v-2.16h8.14v-8.46H1091z"/>
</g>
<g>
	<defs>
		<rect id="SVGID_1_" x="-0.63" y="-24.68" width="1159.75" height="214.65"/>
	</defs>
	<clipPath id="SVGID_00000009573374677965624120000013607432634380402818_">
		<use xlink:href="#SVGID_1_"  style="overflow:visible;"/>
	</clipPath>
	
		<rect x="-0.67" y="-24.68" style="clip-path:url(#SVGID_00000009573374677965624120000013607432634380402818_);fill:none;" width="1159.78" height="214.66"/>
</g>
<path d="M97.25,117.29c1.76,2.19,0.78,4.9-1.86,4.9H84.81c-0.98,0-1.57-0.21-2.25-1.04L48.18,80.35v39.87
	c0,1.04-0.88,1.98-1.86,1.98H36.14c-1.08,0-1.96-0.94-1.96-1.98V47.78c-0.1-2.82-0.39-4.59-0.78-6.47c-0.29-1.36,0.2-2.61,1.27-2.61
	h8.72c2.84,0,4.8,1.98,4.8,4.8v32.98l29.38-36.63c0.59-0.83,1.27-1.15,2.35-1.15h10.58c2.45,0,3.33,2.71,1.96,4.49L64.15,78.47
	L97.25,117.29L97.25,117.29z M147.6,122.93c21.94,0,39.86-18.79,39.86-42.58c0-23.59-17.92-42.37-39.86-42.37
	c-22.14,0-40.06,18.79-40.06,42.37C107.54,104.14,125.46,122.93,147.6,122.93L147.6,122.93z M147.6,108.53
	c-14.1,0-26.05-12.94-26.05-28.18c0-15.13,11.95-27.97,26.05-27.97c14.1,0,25.96,12.84,25.96,27.97
	C173.55,95.59,161.7,108.53,147.6,108.53L147.6,108.53z M288.44,38.71c1.08,0,1.96,0.94,1.96,1.98v79.42c0,1.04-0.78,2.09-1.86,2.09
	h-10.09c-1.18,0-1.96-0.94-1.96-2.09V69.49l-28.6,48.22c-0.59,1.04-1.18,1.46-2.06,1.46h-0.59c-0.88,0-1.47-0.42-2.06-1.46
	l-28.5-48.32v50.72c0,1.04-0.88,2.09-1.96,2.09h-10.09c-1.08,0-1.96-0.94-1.96-2.09V40.69c0-1.04,0.78-1.98,1.96-1.98h8.42
	c0.98,0,1.67,0.42,2.25,1.36l32.22,54.27l32.32-54.27c0.49-0.94,1.18-1.36,2.25-1.36L288.44,38.71L288.44,38.71L288.44,38.71z
	 M335.95,38.71c16.26,0,26.93,15.66,26.93,28.49c0,13.78-10.68,28.7-26.93,28.7h-17.34v24.21c0,1.25-0.78,2.09-1.86,2.09h-10.38
	c-0.98,0-1.76-0.83-1.76-2.09V40.69c0-1.04,0.78-1.98,1.86-1.98L335.95,38.71L335.95,38.71L335.95,38.71z M334.48,81.5
	c9.21,0,14.4-7.2,14.4-14.3c0-6.99-5.19-14.09-14.4-14.09h-15.87V81.5H334.48L334.48,81.5z M439.96,119.9
	c0.59,1.25,0.2,2.3-1.17,2.3h-11.46c-0.98,0-1.57-0.52-1.96-1.36l-5.29-11.9h-37.71l-5.29,11.9c-0.39,0.83-1.08,1.36-1.96,1.36
	h-11.56c-1.18,0-1.86-1.04-1.27-2.3l36.93-80.68c0.39-0.73,0.88-1.04,1.37-1.04h1.18c0.59,0,0.98,0.31,1.37,1.04L439.96,119.9
	L439.96,119.9z M388.35,95.38h25.76l-12.83-29.12L388.35,95.38L388.35,95.38z M449.17,107.69l5.58-6.89
	c1.18-1.46,2.64-1.46,3.72-0.63c3.23,2.92,9.01,8.45,16.26,8.45c7.05,0,13.12-2.82,13.12-9.29c0-6.78-6.56-8.77-13.32-11.69
	c-14.01-6.16-24.19-12.52-24.19-26.09c0-10.65,7.35-23.48,25.07-23.48c12.05,0,20.77,7.31,23.31,10.02
	c1.08,1.15,1.67,2.61,0.69,3.86l-4.9,6.89c-0.98,1.36-2.35,1.98-3.92,0.83c-3.13-2.61-8.23-7.41-15.08-7.41
	c-6.95,0-11.26,4.28-11.26,9.29c0,5.53,4.51,8.25,11.85,11.38c12.83,5.74,25.66,11.9,25.66,26.62c0,12.21-11.36,23.38-26.84,23.38
	c-14.01,0-22.72-9.5-25.17-12C448.88,110.09,448,108.94,449.17,107.69L449.17,107.69L449.17,107.69z"/>
<polygon points="594.09,132.8 546.6,82.2 594.25,31.42 597.42,34.8 552.94,82.2 597.26,129.43 594.09,132.8 "/>
<path d="M615.6,10.97v20.04h-18.81V10.97H615.6 M620.09,6.19h-27.78v29.6h27.78V6.19L620.09,6.19z"/>
<path d="M615.6,134.29v20.04h-18.81v-20.04H615.6 M620.09,129.51h-27.78v29.6h27.78V129.51L620.09,129.51z"/>
<path class="st2" d="M733.45,122.36c1.09,1.16,0.39,2.74-1.09,2.74h-5.64c-0.69,0-1.09-0.21-1.68-0.84l-39.81-41.79v41.26
	c0,0.84-0.4,1.37-1.19,1.37h-5.35c-0.79,0-1.29-0.53-1.29-1.37V47.01c0-1.9-0.2-3.27-0.4-4.75c-0.1-0.95,0.2-1.58,0.99-1.58h4.56
	c1.68,0,2.67,0.95,2.67,2.64v37.36l36.05-39.15c0.5-0.53,0.89-0.84,1.58-0.84h6.04c1.49,0,1.88,1.58,0.99,2.64l-35.46,38.31
	L733.45,122.36L733.45,122.36z M819.71,123.73c0.4,0.84,0.2,1.37-0.69,1.37h-6.04c-0.69,0-1.09-0.32-1.39-0.95l-6.93-15.72h-47.84
	l-6.93,15.72c-0.3,0.63-0.69,0.95-1.29,0.95h-6.24c-0.69,0-1.09-0.53-0.69-1.37l37.14-82.63c0.4-0.74,0.69-0.95,1.19-0.95h1.39
	c0.5,0,0.89,0.21,1.19,0.95L819.71,123.73L819.71,123.73z M760.19,100.83h41.1l-20.6-46.43L760.19,100.83L760.19,100.83z
	 M887.25,123.63c0.5,0.84,0.2,1.48-0.69,1.48h-5.15c-1.58,0-2.67-1.37-3.27-2.32l-17.53-26.49h-0.3h-22.68v27.33
	c0,0.95-0.4,1.48-1.39,1.48h-5.15c-0.89,0-1.29-0.53-1.29-1.48V42.05c0-0.95,0.4-1.37,1.29-1.37h29.22
	c18.52,0,27.04,15.3,27.04,27.86c0,10.76-6.14,23.22-19.11,26.81L887.25,123.63L887.25,123.63z M837.63,48.7l0,39.68h22.09
	c13.47,0,19.91-10.03,19.91-20.05c0-9.92-6.54-19.63-19.91-19.63H837.63L837.63,48.7L837.63,48.7z M906.47,40.68h-5.05
	c-0.89,0-1.29,0.42-1.29,1.37v81.68c0,0.84,0.4,1.37,1.29,1.37h5.15c0.69,0,1.19-0.53,1.19-1.37V42.05
	C907.75,41.1,907.26,40.68,906.47,40.68L906.47,40.68L906.47,40.68z M973.91,48.7l-42.98,0v30.92h26.54c0.89,0,1.39,0.42,1.39,1.48
	v5.06c0,0.95-0.5,1.37-1.39,1.37h-26.54v29.55h42.98c0.89,0,1.39,0.53,1.39,1.48v5.07c0,1.06-0.4,1.48-1.39,1.48h-49.52
	c-0.89,0-1.29-0.53-1.29-1.37V42.05c0-0.95,0.5-1.37,1.29-1.37h49.52c0.89,0,1.39,0.53,1.39,1.37v5.28
	C975.3,48.17,974.9,48.7,973.91,48.7L973.91,48.7L973.91,48.7z M1045.12,123.63c0.5,0.84,0.2,1.48-0.69,1.48h-5.15
	c-1.58,0-2.67-1.37-3.27-2.32l-17.53-26.49h-0.3H995.5v27.33c0,0.95-0.4,1.48-1.39,1.48h-5.15c-0.89,0-1.29-0.53-1.29-1.48V42.05
	c0-0.95,0.4-1.37,1.29-1.37h29.22c18.52,0,27.04,15.3,27.04,27.86c0,10.76-6.14,23.22-19.11,26.81L1045.12,123.63L1045.12,123.63z
	 M995.5,48.7l0,39.68h22.09c13.47,0,19.91-10.03,19.91-20.05c0-9.92-6.54-19.63-19.91-19.63H995.5L995.5,48.7L995.5,48.7z
	 M1120.49,40.68c0.49,0,0.89,0.63,0.49,1.27l-31.59,48.23v33.45c0,0.95-0.4,1.48-1.19,1.48h-3.96c-1.68,0-2.57-1.16-2.57-2.95V90.17
	l-31.59-48.23c-0.3-0.63,0-1.27,0.6-1.27h6.93c0.59,0,0.89,0.42,1.19,1.06l26.74,40.31l26.74-40.31c0.4-0.63,0.59-1.06,1.19-1.06
	L1120.49,40.68L1120.49,40.68L1120.49,40.68z"/>
<rect x="795.4" y="565.34" style="fill:none;" width="3.06" height="1.53"/>
<g>
	<g>
	</g>
</g>
</svg>
