<?xml version="1.0" encoding="utf-8"?>
<!-- Generator: Adobe Illustrator 27.4.0, SVG Export Plug-In . SVG Version: 6.00 Build 0)  -->
<svg version="1.1" id="Layer_1" xmlns="http://www.w3.org/2000/svg" xmlns:xlink="http://www.w3.org/1999/xlink" x="0px" y="0px"
	 viewBox="0 0 96.2 80" style="enable-background:new 0 0 96.2 80;" xml:space="preserve">
<style type="text/css">
	.st0{fill:#262548;}
	.st1{fill:#FFFFFF;}
	.st2{fill:#EA581E;}
</style>
<g>
	<path class="st0" d="M96.2,0c0,0.3,0,0.5,0,0.8c0,26.2,0,52.5,0,78.8c0,0.1,0,0.3,0,0.4c-32,0-64,0-96,0c0-0.1,0-0.3,0-0.4
		c0-26.2,0-52.5,0-78.8c0-0.3,0-0.5,0-0.8C32.2,0,64.2,0,96.2,0z M95.2,40.1c0-12.7,0-25.4,0-38c0-0.2,0-0.4,0-0.5
		c0-0.3-0.1-0.4-0.4-0.4c-0.2,0-0.4,0-0.5,0c-4.9,0-9.7,0-14.6,0c-19.2,0-38.5,0-57.7,0c-0.2,0-0.5,0-0.7,0c-0.3,0-0.4,0.1-0.4,0.4
		c0,0.2,0,0.4,0,0.5c0,7.8,0,15.6,0,23.4c0,16,0,32.1,0,48.1c0,1.6,0,3.2,0,4.8c0,0.7,0,0.7,0.7,0.7c0.1,0,0.2,0,0.4,0
		c13.8,0,27.7,0,41.5,0c10.2,0,20.5,0,30.7,0c1.1,0,1.1,0,1.1-1.1C95.2,65.4,95.2,52.7,95.2,40.1z M3,66.2c0,2.4,0,4.8,0,7.1
		c0,0.4,0,0.9,0.1,1.3c0.2,1.3,1,2.1,2.2,2.5c0.7,0.2,1.5,0.2,2.2,0.2c2.1,0,4.2,0,6.3,0c0.8,0,1.5-0.1,2.3-0.2
		c1.5-0.3,2.3-1.2,2.3-2.8c0-3.1-0.1-6.2-0.1-9.4c0-0.4-0.1-0.5-0.5-0.5c-2.1,0-4.2,0-6.3,0C11,64.5,11,64.6,11,65
		c0,0.9,0,1.8,0.1,2.7c0,0.7-0.1,0.9,0.8,0.9c0.4,0,0.6,0.1,0.6,0.6c0,0.8,0,1.5,0,2.3c0,1-0.6,1.5-1.6,1.5c-1,0-1.5-0.5-1.5-1.5
		c0-1.7,0-3.3,0-5c0-2,0-4,0-6c0-0.9,0.6-1.4,1.5-1.4c1,0,1.6,0.5,1.6,1.4c0,0.5,0,1,0,1.4c0,0.4,0.1,0.5,0.5,0.5c1.7,0,3.3,0,5,0
		c0.4,0,0.5-0.2,0.5-0.5c0-1.2,0-2.3,0-3.5c0-1.4-0.6-2.4-1.9-3.1c-0.9-0.5-2-0.7-3-0.7c-1.3,0-2.6,0-3.8,0c-1.2,0-2.4-0.1-3.6,0.2
		c-1.9,0.4-2.9,1.5-3.1,3.4c0,0.3,0,0.5,0,0.8C3,61.4,3,63.8,3,66.2z M10.4,46.3c0.2-0.3,0.2-0.4,0.3-0.5c2.4-4,4.8-7.9,7.3-11.9
		c0.2-0.2,0.3-0.5,0.3-0.8c0-1.3,0-2.6,0-3.9c0-0.3-0.1-0.4-0.4-0.4c-0.2,0-0.4,0-0.5,0c-4.6,0-9.1,0-13.7,0c-0.1,0-0.3,0-0.4,0
		c-0.3,0-0.5,0.1-0.5,0.5c0,2.6,0,5.3,0,7.9c0,0.4,0.2,0.5,0.6,0.5c1.1,0,2.1,0,3.2,0c0.6,0,0.7,0,0.7-0.6c0-0.9,0-1.9,0-2.9
		c0-0.5,0.2-0.8,0.7-0.9c0.8,0,1.5,0,2.4,0c-0.3,0.5-0.4,0.8-0.6,1.1c-2.2,3.8-4.4,7.6-6.6,11.3C3,46,2.8,46.3,2.8,46.8
		c0,1.3,0,2.6,0,3.9c0,0.4,0.1,0.6,0.6,0.6c4.8,0,9.6,0,14.5,0c0.3,0,0.5-0.1,0.5-0.5c0-0.5,0-0.9,0-1.4c0-2.4,0-4.7,0-7.1
		c0-0.4-0.1-0.7-0.6-0.6c-1.1,0-2.3,0.1-3.4,0c-0.5,0-0.5,0.2-0.5,0.6c0,0.9,0,1.9,0,2.9c0,0.7-0.4,1-1,1.1
		C12,46.3,11.2,46.3,10.4,46.3z M8.8,3C8.8,3,8.8,3.1,8.8,3c-1.9,0-3.8,0.1-5.6,0c-0.3,0-0.6,0.1-0.6,0.5c0,1,0,2.1,0,3.1
		c0,0.3,0.1,0.5,0.4,0.5c0.6,0.1,0.7,0.6,0.7,1.1c0,4,0,8.1,0,12.1c0,0.4-0.1,0.8-0.6,0.9c-0.4,0.1-0.4,0.3-0.4,0.7c0,1,0,2.1,0,3.1
		c0,0.4,0.1,0.5,0.5,0.5c2.3,0,4.6,0,7,0.1c0.3,0,0.5-0.1,0.5-0.5c0-1,0-2.1,0-3.1c0-0.3,0-0.5-0.4-0.6c-0.5,0-0.6-0.4-0.6-0.8
		c0-0.3,0-0.5,0-0.8c0-1-0.1-0.9,0.8-0.9c1,0,2.1,0,3.1,0c0.8,0,1.5-0.1,2.3-0.3c1.1-0.3,1.9-1,2.2-2.1c0.2-0.5,0.3-1,0.3-1.6
		c0-2.6,0.1-5.1,0.1-7.7c0-2.7-1.7-4.3-4.5-4.4c-0.3,0-0.5,0-0.8,0C11.8,3,10.3,3,8.8,3z"/>
	<path class="st1" d="M0.3,0c0,0.3,0,0.5,0,0.8c0,26.2,0,52.5,0,78.8c0,0.1,0,0.3,0,0.4c-0.4,0,0.2,0-0.3,0C0,53.3,0,26.7,0,0
		C0.4,0-0.2,0,0.3,0z"/>
	<path class="st1" d="M95.2,40.1c0,12.6,0,25.3,0,37.9c0,1.1,0,1.1-1.1,1.1c-10.2,0-20.5,0-30.7,0c-13.8,0-27.7,0-41.5,0
		c-0.1,0-0.2,0-0.4,0c-0.7,0-0.7,0-0.7-0.7c0-1.6,0-3.2,0-4.8c0-16,0-32.1,0-48.1c0-7.8,0-15.6,0-23.4c0-0.2,0-0.4,0-0.5
		c0-0.3,0.1-0.5,0.4-0.4c0.2,0,0.5,0,0.7,0c19.2,0,38.5,0,57.7,0c4.9,0,9.7,0,14.6,0c0.2,0,0.4,0,0.5,0c0.3,0,0.5,0.1,0.4,0.4
		c0,0.2,0,0.4,0,0.5C95.2,14.7,95.2,27.4,95.2,40.1z M38.5,48.7c0.2,0.4,0.4,0.7,0.5,1c1,2,2.3,3.7,4,5.1c2.1,1.7,4.5,2.8,7,3.6
		c0.4,0.1,0.7,0.2,1.1,0.3c0.6,0.2,0.6,0.2,0.2,0.7c-0.3,0.3-0.5,0.6-0.8,0.9c-4.4,4.7-8.9,9.4-13.3,14.1c-0.6,0.7-1.2,1.4-1.8,2.1
		c-0.3,0.4-0.2,0.6,0.3,0.6c0.1,0,0.3,0,0.4,0c3.8,0,7.5,0,11.3,0c5.3,0,10.6,0,15.9,0c9.9,0,19.8,0,29.7,0c0.7,0,0.7,0,0.7-0.7
		c0.1-4.5,0.1-9,0.1-13.5c0-7.1,0-14.2,0.1-21.2c0-0.8,0-0.8-0.8-0.8c-2.1,0-4.2,0-6.3,0C83.8,41,80.9,41,78,41
		c-0.4,0-0.6,0.1-0.7,0.6c-0.2,0.8-0.4,1.5-0.6,2.2c-0.7,2.2-2,4.1-3.2,6C69.9,55,66.2,60,62.4,65.1c-1.3,1.8-2.7,3.6-4.1,5.3
		c-1.1,1.2-2.5,1.8-4,1.8c-3.5,0.1-6.1-1.6-7.8-4.6c-0.2-0.4-0.1-0.5,0.2-0.7c0.5-0.2,1.1-0.5,1.6-0.7c0.4-0.2,0.7-0.1,0.9,0.3
		c0.4,0.7,0.9,1.3,1.6,1.8c1.9,1.4,4.5,1.1,6-0.7c0.3-0.4,0.6-0.7,0.9-1.1c4-5.2,7.7-10.5,11.4-15.9c1.5-2.3,3-4.6,4.1-7.1
		c0.3-0.6,0.6-1.3,0.8-1.9c0.1-0.3,0-0.5-0.3-0.6c-0.1,0-0.3-0.1-0.4-0.1c-1.4,0-2.7,0-4.1,0c-0.4,0-0.6,0.2-0.8,0.5
		c-0.4,0.9-1,1.6-1.6,2.4c-1.4,1.9-1.5,1.9-3.2,0.2c0,0,0-0.1,0-0.1c0.4-0.4,0.8-0.8,1.2-1.3c0.4-0.4,0.8-0.8,0.9-1.5
		c-2.5,0-4.9-0.1-7.4-0.1c-11.5,0-22.9,0-34.4,0c-0.2,0-0.4,0-0.6,0c-0.4,0-0.5,0.1-0.5,0.5c0,0.1,0,0.3,0,0.4c0,7.6,0,15.1,0,22.7
		c0,0.2-0.1,0.5,0.1,0.9C28.1,59.8,33.3,54.3,38.5,48.7z M38.4,49.5c-0.2,0-0.3,0.2-0.5,0.4C33,55.3,28,60.7,23.1,66
		c-0.4,0.4-0.5,0.8-0.5,1.3c0.1,3.1,0.1,6.1,0.1,9.2c0,0.7,0,0.7,0.7,0.7c3.2,0,6.4,0,9.6,0c0.5,0,0.8-0.2,1.1-0.5
		c5.4-5.6,10.8-11.3,16.2-16.9c0.2-0.2,0.4-0.3,0.4-0.6c-0.1,0-0.3-0.1-0.4-0.1c-1.6-0.5-3.2-1-4.6-1.8c-3.3-1.7-5.9-4-7.2-7.6
		C38.5,49.6,38.5,49.6,38.4,49.5z M79.6,26.9c0.4-0.1,0.6-0.4,0.8-0.6c1.6-1.6,3.1-3.3,4.6-4.9c2.7-2.9,5.4-5.7,8.1-8.6
		c0.3-0.3,0.5-0.7,0.5-1.2c0-1.8,0-3.5,0-5.3c0-1.1,0-2.3,0-3.4c0-0.7,0-0.7-0.7-0.7c-0.1,0-0.3,0-0.4,0c-2.9,0-5.7,0.1-8.6,0.1
		c-0.6,0-1,0.2-1.4,0.6c-3.9,3.8-7.9,7.6-11.8,11.4c-0.3,0.3-0.7,0.6-0.9,1C74.7,17.7,77.9,21.6,79.6,26.9z M55.3,16
		c1.5,0,3.2,0.2,4.9,0.6C69.6,19,77.1,28.4,75,40c-0.5,2.7-1.6,5.2-3.1,7.5c-2.4,3.9-5,7.6-7.8,11.3c-2.3,3.1-4.5,6.3-6.9,9.3
		c-2.2,2.7-5.5,2.1-7.2,0.3c-0.4-0.4-0.8-0.8-1-1.3c-0.2-0.4-0.5-0.5-0.9-0.3c-0.1,0.1-0.2,0.1-0.3,0.1c-0.7,0.3-0.7,0.3-0.3,0.9
		c1.5,2.4,4.5,4.2,8.1,3.4c0.9-0.2,1.6-0.6,2.2-1.3c0.6-0.7,1.3-1.4,1.8-2.2c3.6-5,7.3-10,10.9-15c1.4-1.9,2.7-3.7,3.8-5.7
		c3.6-6.6,4.1-13.4,1-20.4C71.3,18,62,12.8,52.5,14.2c-8.9,1.3-15,6.4-18.1,14.9c-0.2,0.6-0.2,0.7,0.4,0.9c1.1,0.4,0.8,0.4,1.2-0.6
		C38.9,21.4,46.6,16,55.3,16z M64.2,44c0.1,0.2,0.3,0.3,0.4,0.5c0.6,0.5,0.6,0.5,1.2-0.1c3.1-3.5,4.1-7.6,2.9-12.1
		C66.2,22.4,54,19,46.7,26.1c-1.1,1-2,2.1-2.7,3.5c0.4,0.2,0.7,0.3,1.1,0.5c0.4,0.2,0.6,0.1,0.7-0.3c0.1-0.1,0.1-0.3,0.2-0.4
		c2.2-3.6,7.2-6.6,12.5-5.3c9,2.2,12.1,12.5,6.2,19.2C64.5,43.5,64.3,43.7,64.2,44z"/>
	<path class="st1" d="M3,66.2c0-2.4,0-4.8,0-7.1c0-0.3,0-0.5,0-0.8c0.2-1.9,1.2-3,3.1-3.4c1.2-0.2,2.4-0.2,3.6-0.2
		c1.3,0,2.6,0,3.8,0c1.1,0,2.1,0.2,3,0.7c1.3,0.6,1.9,1.6,1.9,3.1c0,1.2,0,2.3,0,3.5c0,0.4-0.1,0.5-0.5,0.5c-1.7,0-3.3,0-5,0
		c-0.4,0-0.5-0.1-0.5-0.5c0-0.5,0-1,0-1.4c0-0.9-0.6-1.4-1.6-1.4c-0.9,0-1.5,0.5-1.5,1.4c0,2,0,4,0,6c0,1.7,0,3.3,0,5
		c0,1,0.5,1.5,1.5,1.5c1,0,1.6-0.5,1.6-1.5c0-0.8,0-1.5,0-2.3c0-0.4-0.1-0.6-0.6-0.6c-0.9,0.1-0.8-0.1-0.8-0.9c0-0.9,0-1.8-0.1-2.7
		c0-0.4,0.1-0.6,0.5-0.6c2.1,0,4.2,0,6.3,0c0.4,0,0.5,0.2,0.5,0.5c0,3.1,0.1,6.2,0.1,9.4c0,1.5-0.8,2.4-2.3,2.8
		c-0.8,0.2-1.5,0.2-2.3,0.2c-2.1,0-4.2,0-6.3,0c-0.7,0-1.5,0-2.2-0.2c-1.3-0.4-2-1.2-2.2-2.5C3,74.2,3,73.8,3,73.3
		C3,70.9,3,68.6,3,66.2z"/>
	<path class="st1" d="M10.4,46.3c0.9,0,1.6,0,2.4,0c0.7,0,1-0.4,1-1.1c0-0.9,0.1-1.9,0-2.9c0-0.4,0.1-0.6,0.5-0.6c1.1,0,2.3,0,3.4,0
		c0.5,0,0.6,0.2,0.6,0.6c0,2.4,0,4.7,0,7.1c0,0.5,0,1,0,1.4c0,0.4-0.1,0.5-0.5,0.5c-4.8,0-9.6,0-14.5,0c-0.4,0-0.6-0.1-0.6-0.6
		c0-1.3,0-2.6,0-3.9c0-0.4,0.2-0.7,0.4-1.1c2.2-3.8,4.4-7.6,6.6-11.3c0.2-0.3,0.3-0.6,0.6-1.1c-0.9,0-1.7,0-2.4,0
		c-0.5,0-0.7,0.4-0.7,0.9c0,0.9,0,1.9,0,2.9c0,0.6,0,0.6-0.7,0.6c-1.1,0-2.1,0-3.2,0c-0.4,0-0.6-0.1-0.6-0.5c0-2.6,0-5.3,0-7.9
		c0-0.3,0.1-0.5,0.5-0.5c0.1,0,0.3,0,0.4,0c4.6,0,9.1,0,13.7,0c0.2,0,0.4,0,0.5,0c0.3,0,0.4,0.1,0.4,0.4c0,1.3,0,2.6,0,3.9
		c0,0.3-0.2,0.6-0.3,0.8c-2.4,4-4.8,7.9-7.3,11.9C10.6,45.9,10.5,46,10.4,46.3z"/>
	<path class="st1" d="M8.8,3c1.5,0,3,0,4.6,0c0.3,0,0.5,0,0.8,0c2.8,0.1,4.4,1.6,4.5,4.4c0,2.6-0.1,5.1-0.1,7.7
		c0,0.5-0.2,1.1-0.3,1.6c-0.4,1.1-1.1,1.8-2.2,2.1c-0.7,0.2-1.5,0.3-2.3,0.3c-1,0-2.1,0-3.1,0c-0.9,0-0.8-0.1-0.8,0.9
		c0,0.3,0,0.5,0,0.8c0,0.4,0.1,0.8,0.6,0.8c0.4,0,0.4,0.3,0.4,0.6c0,1,0,2.1,0,3.1c0,0.3-0.1,0.5-0.5,0.5c-2.3,0-4.6-0.1-7-0.1
		c-0.4,0-0.5-0.2-0.5-0.5c0-1,0-2.1,0-3.1c0-0.3,0.1-0.6,0.4-0.7c0.5-0.1,0.6-0.4,0.6-0.9c0-4,0-8.1,0-12.1c0-0.6,0-1-0.7-1.1
		C2.7,7.1,2.6,6.9,2.6,6.7c0-1,0-2.1,0-3.1c0-0.4,0.2-0.5,0.6-0.5C5,3.1,6.9,3.1,8.8,3C8.8,3.1,8.8,3,8.8,3z M9.7,10.7
		c0,0.7,0,1.4,0,2.1c0,1.5-0.3,1.3,1.3,1.3c1,0,1.2-0.2,1.2-1.2c0-1.3,0-2.7,0-4c0-1.2-0.3-1.5-1.4-1.5c-0.2,0-0.4,0-0.5,0
		C9.8,7.4,9.7,7.6,9.7,8C9.7,8.9,9.7,9.8,9.7,10.7z"/>
	<path class="st2" d="M38.5,48.7c-5.2,5.6-10.4,11.1-15.6,16.7c-0.2-0.3-0.1-0.6-0.1-0.9c0-7.6,0-15.1,0-22.7c0-0.1,0-0.3,0-0.4
		c0-0.3,0.1-0.5,0.5-0.5c0.2,0,0.4,0,0.6,0c11.5,0,22.9,0,34.4,0c2.4,0,4.9,0.1,7.4,0.1c-0.1,0.7-0.6,1-0.9,1.5
		c-0.4,0.5-0.8,0.9-1.2,1.3c0,0.1,0,0.1,0,0.1c1.7,1.7,1.8,1.7,3.2-0.2c0.6-0.8,1.2-1.5,1.6-2.4c0.2-0.3,0.4-0.5,0.8-0.5
		c1.4,0,2.7,0,4.1,0c0.1,0,0.3,0,0.4,0.1c0.4,0,0.4,0.3,0.3,0.6c-0.2,0.7-0.5,1.3-0.8,1.9c-1.1,2.5-2.6,4.8-4.1,7.1
		c-3.6,5.4-7.4,10.7-11.4,15.9c-0.3,0.4-0.6,0.7-0.9,1.1c-1.5,1.8-4.1,2.1-6,0.7c-0.7-0.5-1.2-1.1-1.6-1.8c-0.2-0.4-0.5-0.5-0.9-0.3
		c-0.5,0.3-1.1,0.5-1.6,0.7c-0.3,0.1-0.4,0.3-0.2,0.7c1.7,3,4.2,4.7,7.8,4.6c1.6,0,3-0.6,4-1.8c1.5-1.7,2.8-3.5,4.1-5.3
		c3.7-5,7.4-10.1,10.9-15.2c1.3-1.9,2.6-3.8,3.2-6c0.2-0.7,0.5-1.5,0.6-2.2c0.1-0.4,0.3-0.6,0.7-0.6c2.9,0,5.8-0.1,8.7-0.1
		c2.1,0,4.2,0,6.3,0c0.8,0,0.8,0,0.8,0.8c0,7.1,0,14.2-0.1,21.2c0,4.5-0.1,9-0.1,13.5c0,0.7,0,0.7-0.7,0.7c-9.9,0-19.8,0-29.7,0
		c-5.3,0-10.6,0-15.9,0c-3.8,0-7.5,0-11.3,0c-0.1,0-0.3,0-0.4,0c-0.5,0-0.6-0.2-0.3-0.6c0.6-0.7,1.2-1.4,1.8-2.1
		c4.4-4.7,8.9-9.4,13.3-14.1c0.3-0.3,0.6-0.6,0.8-0.9c0.4-0.5,0.4-0.5-0.2-0.7c-0.4-0.1-0.7-0.2-1.1-0.3c-2.6-0.8-4.9-1.9-7-3.6
		c-1.7-1.4-3-3.2-4-5.1C38.9,49.4,38.7,49.1,38.5,48.7z"/>
	<path class="st0" d="M38.4,49.5c0,0,0.1,0.1,0.1,0.1c1.3,3.6,3.9,5.9,7.2,7.6c1.5,0.8,3,1.3,4.6,1.8c0.1,0,0.3,0.1,0.4,0.1
		c0,0.3-0.2,0.4-0.4,0.6C45,65.4,39.6,71.1,34.2,76.7c-0.3,0.3-0.6,0.5-1.1,0.5c-3.2,0-6.4,0-9.6,0c-0.7,0-0.7,0-0.7-0.7
		c0-3.1-0.1-6.1-0.1-9.2c0-0.5,0.1-0.9,0.5-1.3c5-5.4,10-10.7,14.9-16.1C38.1,49.8,38.2,49.6,38.4,49.5z"/>
	<path class="st0" d="M79.6,26.9c-1.8-5.2-5-9.2-10-11.6c0.2-0.5,0.6-0.7,0.9-1c3.9-3.8,7.9-7.6,11.8-11.4c0.4-0.4,0.8-0.6,1.4-0.6
		c2.9,0,5.7-0.1,8.6-0.1c0.1,0,0.3,0,0.4,0c0.7,0,0.7,0,0.7,0.7c0,1.1,0,2.3,0,3.4c0,1.8,0,3.5,0,5.3c0,0.5-0.1,0.8-0.5,1.2
		c-2.7,2.9-5.4,5.7-8.1,8.6c-1.5,1.6-3.1,3.3-4.6,4.9C80.2,26.5,80.1,26.8,79.6,26.9z"/>
	<path class="st0" d="M55.3,16c-8.7,0-16.4,5.4-19.3,13.4c-0.4,1-0.1,1-1.2,0.6c-0.6-0.2-0.6-0.3-0.4-0.9
		c3.1-8.5,9.1-13.6,18.1-14.9C62,12.8,71.3,18,75.3,26.7c3.2,6.9,2.7,13.7-1,20.4c-1.1,2-2.4,3.9-3.8,5.7c-3.6,5-7.3,10-10.9,15
		c-0.6,0.8-1.2,1.5-1.8,2.2c-0.6,0.7-1.3,1.1-2.2,1.3C52,72.2,49,70.4,47.5,68c-0.4-0.6-0.4-0.6,0.3-0.9c0.1,0,0.2-0.1,0.3-0.1
		c0.4-0.2,0.6-0.2,0.9,0.3c0.3,0.5,0.6,0.9,1,1.3c1.7,1.8,5.1,2.4,7.2-0.3c2.4-3,4.6-6.2,6.9-9.3c2.7-3.7,5.3-7.5,7.8-11.3
		c1.5-2.3,2.6-4.8,3.1-7.5c2-11.6-5.5-21-14.9-23.4C58.5,16.2,56.8,16,55.3,16z"/>
	<path class="st0" d="M64.2,44c0.1-0.3,0.3-0.4,0.5-0.6c5.9-6.7,2.8-17-6.2-19.2c-5.3-1.3-10.3,1.7-12.5,5.3
		c-0.1,0.1-0.2,0.3-0.2,0.4c-0.1,0.3-0.4,0.5-0.7,0.3c-0.3-0.2-0.7-0.3-1.1-0.5c0.7-1.4,1.6-2.5,2.7-3.5c7.3-7.1,19.5-3.7,22.1,6.1
		c1.2,4.5,0.2,8.6-2.9,12.1c-0.6,0.6-0.6,0.6-1.2,0.1C64.5,44.3,64.3,44.2,64.2,44z"/>
	<path class="st0" d="M9.7,10.7c0-0.9,0-1.8,0-2.8c0-0.4,0.1-0.6,0.6-0.6c0.2,0,0.4,0,0.5,0c1.2,0,1.4,0.3,1.4,1.5c0,1.3,0,2.7,0,4
		c0,1-0.2,1.2-1.2,1.2c-1.6,0-1.3,0.2-1.3-1.3C9.7,12.2,9.7,11.4,9.7,10.7z"/>
</g>
</svg>
