<?xml version="1.0" encoding="utf-8"?>
<!-- Generator: Adobe Illustrator 27.4.0, SVG Export Plug-In . SVG Version: 6.00 Build 0)  -->
<svg version="1.1" id="Layer_1" xmlns="http://www.w3.org/2000/svg" xmlns:xlink="http://www.w3.org/1999/xlink" x="0px" y="0px"
	 viewBox="0 0 223.2 80" style="enable-background:new 0 0 223.2 80;" xml:space="preserve">
<style type="text/css">
	.st0{fill:#626366;}
	.st1{fill:#F48120;}
</style>
<g>
	<path class="st0" d="M165.5,40.5v-4.9h1.5v-2.3h-1.5v-0.3c0-0.4,0.3-0.6,0.7-0.6c0.3,0,0.5,0.1,0.7,0.3l1-1.5
		c-0.5-0.5-1.4-0.8-2.3-0.8c-1.6,0-2.8,1.1-2.8,2.6v0.3h-1.2v2.3h1.2v4.9L165.5,40.5L165.5,40.5z M175.4,40.5v-7.3h-2.7v4.5
		c-0.2,0.3-0.5,0.6-1.1,0.6c-0.7,0-1.1-0.3-1.1-1v-4h-2.7v5.2c0,1.2,0.7,2.3,2.4,2.3c1.3,0,2.1-0.5,2.5-1v0.8L175.4,40.5L175.4,40.5
		z M184.6,40.5v-5.2c0-1.3-0.7-2.3-2.4-2.3c-1.3,0-2.1,0.5-2.5,1v-0.8h-2.7v7.3h2.7V36c0.2-0.3,0.5-0.6,1.2-0.6c0.6,0,1.1,0.3,1.1,1
		v4L184.6,40.5L184.6,40.5z M193.5,40.5v-10h-2.7V34c-0.6-0.7-1.3-0.9-2-0.9c-1.8,0-3.2,1.4-3.2,3.8c0,2.5,1.4,3.8,3.2,3.8
		c0.7,0,1.4-0.3,2-0.9v0.8H193.5z M189.7,38.3c-0.7,0-1.4-0.5-1.4-1.4c0-0.9,0.6-1.4,1.4-1.4c0.4,0,0.9,0.2,1.1,0.5v1.9
		C190.6,38.1,190.1,38.3,189.7,38.3z M202.5,40.5v-7.3h-2.7V34c-0.6-0.7-1.3-0.9-2-0.9c-1.8,0-3.2,1.4-3.2,3.8
		c0,2.5,1.4,3.8,3.2,3.8c0.7,0,1.4-0.3,2-0.9v0.8L202.5,40.5L202.5,40.5z M198.7,38.3c-0.7,0-1.4-0.5-1.4-1.4c0-0.9,0.6-1.4,1.4-1.4
		c0.4,0,0.9,0.2,1.1,0.5v1.9C199.5,38.1,199,38.3,198.7,38.3z M207.6,40.7c1.7,0,2.7-0.8,3.1-1.4l-1.7-1.7c-0.2,0.3-0.6,0.6-1.2,0.6
		c-0.8,0-1.4-0.5-1.4-1.4c0-0.9,0.7-1.4,1.4-1.4c0.6,0,1,0.3,1.2,0.6l1.7-1.6c-0.4-0.6-1.4-1.4-3.1-1.4c-2.3,0-4.1,1.5-4.1,3.8
		C203.5,39.2,205.3,40.7,207.6,40.7z M212.9,32.7c0.8,0,1.5-0.7,1.5-1.5c0-0.8-0.7-1.5-1.5-1.5c-0.8,0-1.5,0.7-1.5,1.5
		C211.4,32.1,212.1,32.7,212.9,32.7z M211.2,43.5c2.1,0,3-1.4,3-3.3v-6.9h-2.7v6.9c0,0.7-0.3,1.1-0.8,1.1c-0.4,0-0.6-0.1-0.9-0.3
		l-0.6,2C209.8,43.3,210.1,43.5,211.2,43.5z M223.2,40.5v-7.3h-2.7V34c-0.6-0.7-1.3-0.9-2-0.9c-1.8,0-3.2,1.4-3.2,3.8
		c0,2.5,1.4,3.8,3.2,3.8c0.7,0,1.4-0.3,2-0.9v0.8L223.2,40.5L223.2,40.5z M219.4,38.3c-0.7,0-1.4-0.5-1.4-1.4c0-0.9,0.6-1.4,1.4-1.4
		c0.4,0,0.9,0.2,1.1,0.5v1.9C220.3,38.1,219.8,38.3,219.4,38.3z"/>
	<g>
		<path class="st0" d="M72.4,45.8h8.5V72h-8.5l-0.8-2.9c-2,2.5-4.7,3.7-8,3.7c-2.2,0-4.3-0.6-6.3-1.7c-2.2-1.2-3.9-2.9-5.1-5.1
			c-1.2-2.1-1.8-4.5-1.8-7.2c0-4.4,1.5-8,4.6-10.7c2.5-2.1,5.3-3.2,8.5-3.2c1.7,0,3.2,0.3,4.5,0.8c1.3,0.5,2.5,1.4,3.7,2.6
			L72.4,45.8z M65.9,53c-1.6,0-3.1,0.6-4.2,1.7c-1.2,1.2-1.7,2.5-1.7,4.1c0,1.7,0.6,3.1,1.7,4.3c1.1,1.2,2.5,1.7,4.2,1.7
			c1.6,0,3.1-0.6,4.2-1.7c1.2-1.1,1.7-2.5,1.7-4.2c0-1.6-0.6-3-1.7-4.2C69,53.6,67.6,53,65.9,53z"/>
		<path class="st0" d="M92.9,45.8l6.2,13.4l6.3-13.4h10.3L102.1,72H96L82.5,45.8L92.9,45.8L92.9,45.8z"/>
		<path class="st0" d="M136.3,45.8h8.5V72h-8.5l-0.8-2.9c-2,2.5-4.7,3.7-8,3.7c-2.2,0-4.3-0.6-6.3-1.7c-2.2-1.2-3.9-2.9-5.1-5.1
			c-1.2-2.1-1.8-4.5-1.8-7.2c0-4.4,1.5-8,4.6-10.7c2.5-2.1,5.3-3.2,8.5-3.2c1.7,0,3.2,0.3,4.5,0.8c1.3,0.5,2.5,1.4,3.7,2.6
			L136.3,45.8z M129.9,53c-1.6,0-3.1,0.6-4.2,1.7c-1.2,1.2-1.7,2.5-1.7,4.1c0,1.7,0.6,3.1,1.7,4.3c1.1,1.2,2.6,1.7,4.2,1.7
			c1.7,0,3.1-0.6,4.2-1.7c1.2-1.1,1.7-2.5,1.7-4.2c0-1.6-0.6-3-1.7-4.2C133,53.6,131.6,53,129.9,53z"/>
		<path class="st0" d="M158.2,29.7V72H149V29.7H158.2z"/>
		<path class="st0" d="M176.9,44.9c5.2,0,9.2,1.6,12.1,4.7c2.4,2.6,3.6,5.7,3.6,9.3c0,4.2-1.6,7.7-4.7,10.4
			c-2.8,2.4-6.5,3.6-11.1,3.6c-2.9,0-5.7-0.6-8.2-1.9c-2.4-1.2-4.2-3-5.6-5.4c-1.2-2-1.7-4.4-1.7-7c0-4,1.6-7.4,4.7-10.2
			C168.7,46.2,172.4,45,176.9,44.9z M176.9,52.9c-1.6,0-3,0.6-4.2,1.7c-1.2,1.2-1.7,2.6-1.7,4.2c0,1.7,0.6,3.1,1.7,4.3
			c1.1,1.2,2.6,1.7,4.2,1.7c1.6,0,3-0.6,4.2-1.7c1.2-1.2,1.7-2.6,1.7-4.2c0-1.7-0.6-3.1-1.7-4.2C180.1,53.5,178.6,52.9,176.9,52.9z"
			/>
		<path class="st0" d="M195.7,45.8h8.5l0.8,3.3c1.1-1.2,2.1-2.1,3-2.6c1.5-0.8,3.3-1.2,5.4-1.2c3.2,0,5.7,1,7.5,2.9
			c0.9,0.9,1.5,1.9,1.9,3c0.4,1,0.5,2.5,0.5,4.2V72H214V58.7c0-2-0.2-3.4-0.6-4.1c-0.3-0.6-0.8-1.1-1.5-1.5
			c-0.7-0.4-1.4-0.6-2.2-0.6c-1.6,0-2.9,0.6-3.9,1.7c-0.7,0.8-1,2-1,3.6v14h-9.2L195.7,45.8L195.7,45.8z"/>
	</g>
	<path class="st0" d="M30.5,64c-2.7-1.5-7.5-0.4-11.7-0.1c0.3-0.8,1.4-0.9,2-1.5c-1.4-1.1-0.7-1.9-1.9-2.7c2.6-1,7.6,1,10.5-0.2
		c-1.2-7-6.4-8.9-11.2-11.5c7.9,0.2,15.4,4.8,21,9.2c1.8-0.2,3-1.1,4.6-0.4c0.5,4.6-5,4.3-3.7,9.6C35,71.5,30,76.6,22.8,79.8
		c-0.7,0.2-0.8-0.2-0.9-0.8C26.7,75.6,31.2,72,30.5,64"/>
	<path class="st1" d="M11.7,26.1c0,0-0.9-1.1-1.8-2.7c-0.9-1.7-2.2-4.5-2.2-4.9c0-0.4,0.3-1.7,0.3-1.7s-0.8,0.4-1.5-0.3
		c-0.7-0.7-3.9-6.7-4.6-9.8C1.1,3.7-0.6,0.5,0.2,0.3C1,0.2,5,2.2,7.4,4.3c2.3,2.1,5.9,6.6,7.4,8s2.1,2,2.8,3.8
		c0.8,1.9,1.1,2.5,2,2.5c0.9,0,1.7-1,2.6-1c0.9,0,1.8,0.8,2.2,1c0.4,0.2,1.1,0.6,1.1,0.6s-0.6,0.4-0.9,0.9c-0.3,0.5-2.1,2.5-1.8,3
		c0.3,0.4,4.2,3,4.8,4.1c0.6,1,4.3,4.7,6.1,8c1.8,3.4,3.8,7.5,3.4,8.1C36.8,44,36.7,44.6,36,44c-0.8-0.5-1.1-0.3-1.5-0.5
		c-0.4-0.2-2.8-2.4-3.2-2c-0.4,0.4-1.2,0.4-1.7-0.2c-0.5-0.7-1.3-0.7-1.7-1c-0.4-0.3-1.9-1.1-2-1.7c-0.2-0.6,0.1-1.3-0.3-1.3
		c-0.5,0-0.6,1.1-1.2,0.2c-0.6-0.9-1.8-1.7-1.7-2.3c0.1-0.6,0.1-1.4-0.3-1.2s-0.5,1-1.3,0.4c-0.8-0.6-3.3-2.5-4.7-3.4L15,30.2
		c0,0-0.4,0.5-0.4,1.7c0,1.2-0.3,6.2-0.2,7.8c0,1.6,0.2,2.3-0.1,2.5c-0.3,0.2-0.3-0.7-0.8-1c-0.5-0.4-1.3,0.1-1.3-0.6
		s-0.2-1.3-0.6-1.1c-0.4,0.2-1.2,0-1.2-0.5c0-0.5-0.2-1.2-0.5-0.8c-0.3,0.3-1,0-0.9-0.5c0.2-0.4,0.1-1-0.4-1.2
		c-0.5-0.2-0.3-0.1-0.5-0.6c-0.2-0.5-0.7-0.6-1-0.5c-0.3,0.1,0.1-0.2-0.3-0.6C6.5,34.3,6,34.2,6,34.2c0-0.3,0.5-0.6-0.1-0.8
		c-0.6-0.2-1.7-0.5-1.6-1.3c0.1-0.8,0.3-0.9-0.4-1.1c-0.7-0.2-1.2-0.2-1.1-0.6c0-0.3-1.3-0.4-1.2-0.9c0.1-0.5-1.4-1-0.9-1.6
		c0.5-0.5,2.6,0.1,5.1-0.2c2.4-0.3,5.1-0.7,5.4-0.9C11.4,26.7,11.7,26.1,11.7,26.1"/>
	<path class="st0" d="M39,19.2c-0.1-0.3,1.2-0.2,2.2-0.2c1,0,8.9-0.7,9.3-0.6c0.3,0.1,0.3,0.4,0.7,0.4s3.5-0.2,4.1,0
		c0.5,0.2,0.5,0.8,0.8,1.1c0.3,0.3,0.4,0.5,0.2,0.5s-0.8,0-0.8,0s0,0.5-0.6,1S54,22.3,54,22.3s1,0.2,1.2,1.5c0.2,1.3,0.2,5,0.2,6.8
		c0,1.8,0.3,8.7-0.3,8.6c-0.6-0.1-0.7-1.1-0.7-1.1s-0.5-0.4-0.5-0.8c0-0.4-0.7-0.5-0.7-0.9c0-0.4-0.2-1.2-0.2-1.2s-0.4,0.2-0.5-0.4
		c-0.1-0.5-0.3-1-0.3-1s-0.4-0.1-0.5-0.5c-0.1-0.4,0-1.2,0-1.2s-0.7-0.5-0.7-1c0-0.5-0.1-1.3-0.3-1.3s-0.3-0.1-0.3-0.8
		c0.1-0.7-0.4-0.5-0.5-1c0-0.5,0.3-1.2-0.2-1.8c-0.5-0.6-1.1-1.6-1.4-1.9c-0.2-0.3-0.3-0.5-1-0.4c-0.7,0-1.5-0.1-2.3,0.5
		c-0.8,0.6-3.1,2-3.8,2.9c-0.7,0.8-1.2,1.1-1.1,0.8c0.1-0.3,1.2-1.5,0.9-2.1c-0.3-0.6-0.9-0.5-1.6-0.3c-0.7,0.3-2,1-1.6,0.5
		c0.4-0.6,2.1-1.1,3.1-1.5s1.4-0.5,2.2-1.3c0.8-0.8,2.5-1.7,2.3-2.1c-0.2-0.4-0.5-0.3-1.1-0.4c-0.5-0.1-0.7-1.1-1.3-1
		C42.7,19.9,39.3,20,39,19.2"/>
</g>
</svg>
