<?xml version="1.0" encoding="utf-8"?>
<!-- Generator: Adobe Illustrator 27.4.0, SVG Export Plug-In . SVG Version: 6.00 Build 0)  -->
<svg version="1.1" id="Layer_1" xmlns="http://www.w3.org/2000/svg" xmlns:xlink="http://www.w3.org/1999/xlink" x="0px" y="0px"
	 viewBox="0 0 401.7 80" style="enable-background:new 0 0 401.7 80;" xml:space="preserve">
<style type="text/css">
	.st0{fill:#1D2631;}
	.st1{fill:#F063A4;}
	.st2{fill:#6BCCF4;}
</style>
<g>
	<g>
		<path class="st0" d="M63.6,44.5c0,2.2,0.7,4.1,2.1,5.7c1.4,1.6,3.2,2.3,5.3,2.3c1.4,0,2.6-0.2,3.4-0.6c0.9-0.4,1.9-1.2,2.9-2.2
			s2-1.6,2.8-1.6h7.6c0.6,0,1,0.2,1.4,0.6c0.4,0.4,0.5,0.9,0.5,1.5c0,0.4-0.1,1-0.5,1.7c-1.7,3.7-4.2,6.6-7.6,8.5
			c-3.3,1.9-6.9,2.9-10.7,2.9c-5.7,0-10.5-1.9-14.4-5.9c-3.9-3.9-5.9-8.9-5.9-15v-4.7c0-6.1,1.9-11.1,5.9-15S65.3,17,71,17
			c5.5,0,10.2,2,14,5.9c3.9,3.9,5.8,8.8,5.8,14.5v3.9c0,0.7-0.3,1.4-0.8,1.9C89.4,43.7,88.8,44,88,44H63.6L63.6,44.5L63.6,44.5z
			 M78.5,35.6v-0.7c0-2.2-0.7-3.9-2.1-5.3c-1.4-1.3-3.2-2-5.3-2s-3.9,0.7-5.3,2.1c-1.4,1.3-2.1,3.1-2.1,5.3v0.6
			C63.8,35.6,78.5,35.6,78.5,35.6z"/>
	</g>
	<g>
		<path class="st0" d="M101.6,62.3c-0.7,0-1.4-0.3-1.9-0.8c-0.5-0.5-0.8-1.2-0.8-1.9v-39c0-0.7,0.3-1.4,0.8-1.9
			c0.5-0.5,1.2-0.8,1.9-0.8h7.4c0.7,0,1.4,0.3,1.9,0.8c0.5,0.5,0.8,1.2,0.8,1.9V22c2.7-3.4,6.7-5,12-5c5.3,0,9.2,1.9,11.8,5.5
			c2.6,3.7,3.9,8.7,3.9,15.3v31.1c0,0.7-0.3,1.4-0.8,1.9c-0.5,0.5-1.2,0.8-1.9,0.8h-7.4c-0.7,0-1.4-0.3-1.9-0.8
			c-0.5-0.5-0.8-1.2-0.8-1.9v-33c0-2.6-0.7-4.7-2.1-6.1c-1.4-1.5-3.2-2.1-5.3-2.1c-2.1,0-3.9,0.7-5.3,2.1c-1.4,1.5-2.1,3.5-2.1,6.1
			v23.6c0,0.7-0.3,1.4-0.8,1.9c-0.5,0.5-1.2,0.8-1.9,0.8L101.6,62.3L101.6,62.3z"/>
	</g>
	<g>
		<path class="st0" d="M161.7,77.3c0,0.7-0.3,1.4-0.8,1.9s-1.2,0.8-1.9,0.8h-7.4c-0.7,0-1.4-0.3-1.9-0.8c-0.5-0.5-0.8-1.2-0.8-1.9
			V20.6c0-0.7,0.3-1.4,0.8-1.9c0.5-0.5,1.2-0.8,1.9-0.8h7.4c0.7,0,1.4,0.3,1.9,0.8s0.8,1.2,0.8,1.9V22c2.8-3.4,6.8-5,12-5
			c5,0,8.9,1.8,11.6,5.3c2.7,3.6,4.1,8.7,4.1,15.5v4c0,7-1.4,12.2-4.1,15.9c-2.7,3.7-6.6,5.5-11.5,5.5c-5.4,0-9.4-1.7-12-5
			L161.7,77.3L161.7,77.3z M161.7,44.2c0,2.3,0.6,4.3,1.8,5.9s3,2.4,5.6,2.4s4.4-0.8,5.6-2.4c1.2-1.6,1.8-3.6,1.8-5.9V36
			c0-2.3-0.6-4.3-1.8-5.9c-1.2-1.6-3-2.4-5.6-2.4c-2.5,0-4.4,0.8-5.6,2.4s-1.8,3.6-1.8,5.9V44.2z"/>
	</g>
	<g>
		<path class="st0" d="M233.7,9c0.7,0,1.4,0.3,1.9,0.8s0.8,1.2,0.8,1.9v47.8c0,0.7-0.3,1.4-0.8,1.9s-1.2,0.8-1.9,0.8h-7.4
			c-0.7,0-1.4-0.3-1.9-0.8s-0.8-1.2-0.8-1.9v-1.4c-1.3,1.7-2.9,3-4.6,3.9c-1.7,0.8-4,1.3-6.7,1.3c-5.2,0-9.1-1.9-11.6-5.5
			s-3.8-8.7-3.8-15.3V20.6c0-0.7,0.3-1.4,0.8-1.9c0.5-0.5,1.2-0.8,1.9-0.8h7.4c0.7,0,1.4,0.3,1.9,0.8s0.8,1.2,0.8,1.9v23.6
			c0,2.6,0.7,4.7,2,6.1c1.3,1.5,3,2.1,5.1,2.1s3.7-0.7,5-2.1c1.2-1.5,1.9-3.5,1.9-6.1V11.7c0-0.7,0.3-1.4,0.8-1.9
			c0.5-0.5,1.2-0.8,1.9-0.8H233.7z"/>
	</g>
	<g>
		<path class="st0" d="M249.4,62.3c-0.7,0-1.4-0.3-1.9-0.8c-0.5-0.5-0.8-1.2-0.8-1.9V2.8c0-0.7,0.3-1.4,0.8-1.9
			c0.5-0.5,1.2-0.8,1.9-0.8h7.4c0.7,0,1.4,0.3,1.9,0.8c0.5,0.5,0.8,1.2,0.8,1.9v56.7c0,0.7-0.3,1.4-0.8,1.9
			c-0.5,0.5-1.2,0.8-1.9,0.8L249.4,62.3L249.4,62.3z"/>
	</g>
	<g>
		<path class="st0" d="M299.5,59.8c-3.4,2.2-7.8,3.4-13.1,3.4c-5.4,0-9.6-1.3-12.8-3.9c-3.1-2.5-5-5.5-5.7-8.9
			c-0.1-0.9-0.3-1.5-0.3-1.7c0-0.6,0.2-1.1,0.6-1.5c0.4-0.4,0.9-0.6,1.5-0.6h7.6c1,0,1.6,0.6,2.1,1.8c0.7,1.9,1.6,3.2,3,3.9
			c1.1,0.6,2.5,0.9,4.3,0.9c4,0,6.1-1.3,6.1-3.9c0-1.2-0.8-2.1-2.5-2.7c-1.6-0.7-3.6-1.2-6-1.7c-2.4-0.4-4.7-1.1-7-1.9
			c-2.4-0.8-4.4-2.2-6-4.3c-1.6-2.1-2.6-4.6-2.6-7.9c0-4.6,1.6-8,5-10.3c3.3-2.3,7.7-3.5,13.3-3.5c4.1,0,7.8,1,11,3
			c3.1,1.9,5.3,5,6.3,9c0.1,0.7,0.3,1.3,0.3,1.9c0,1.3-0.7,1.9-1.9,1.9h-7.6c-0.6,0-1-0.1-1.3-0.4c-0.2-0.2-0.5-0.7-0.8-1.3
			c-1.4-2.8-3.6-4.1-6.6-4.1c-3.6,0-5.3,1-5.3,3.1c0,1.3,0.8,2.2,2.4,3c1.6,0.7,3.6,1.3,5.9,1.9c2.4,0.5,4.7,1.2,7,1.9
			c2.4,0.7,4.4,2.2,6,4.3c1.6,2.1,2.4,4.7,2.4,7.9C304.7,53.9,302.9,57.6,299.5,59.8z"/>
	</g>
	<g>
		<path class="st0" d="M323.8,44.5c0,2.2,0.7,4.1,2.1,5.7c1.4,1.6,3.2,2.3,5.3,2.3c1.4,0,2.6-0.2,3.4-0.6c0.9-0.4,1.9-1.2,2.9-2.2
			c1-1,2-1.6,2.8-1.6h7.6c0.6,0,1,0.2,1.4,0.6s0.5,0.9,0.5,1.5c0,0.4-0.1,1-0.5,1.7c-1.7,3.7-4.2,6.6-7.6,8.5
			c-3.3,1.9-6.9,2.9-10.7,2.9c-5.7,0-10.5-1.9-14.4-5.9c-3.9-3.9-5.9-8.9-5.9-15v-4.7c0-6.1,1.9-11.1,5.9-15s8.7-5.9,14.4-5.9
			c5.5,0,10.2,2,14,5.9c3.9,3.9,5.8,8.8,5.8,14.5v3.9c0,0.7-0.3,1.4-0.8,1.9c-0.5,0.5-1.2,0.8-1.9,0.8h-24.4L323.8,44.5L323.8,44.5z
			 M338.6,35.6v-0.7c0-2.2-0.7-3.9-2.1-5.3c-1.4-1.3-3.2-2-5.3-2c-2.1,0-3.9,0.7-5.3,2.1c-1.4,1.3-2.1,3.1-2.1,5.3v0.6
			C323.9,35.6,338.6,35.6,338.6,35.6z"/>
	</g>
	<g>
		<path class="st1" d="M37.1,79.9c-2.2,0-4.4-1.2-5.5-3.3c-6.2-11.2-9.3-23.6-9.3-37c0-13.1,3.1-25.3,9.3-36.4
			c1.7-3,5.6-4.1,8.6-2.4c3,1.7,4.1,5.6,2.4,8.6c-5.1,9.1-7.7,19.3-7.7,30.2c0,11.2,2.6,21.6,7.8,30.9c1.7,3,0.6,6.9-2.4,8.6
			C39.2,79.7,38.2,79.9,37.1,79.9z"/>
	</g>
	<g>
		<path class="st0" d="M63.6,44.5c0,2.2,0.7,4.1,2.1,5.7c1.4,1.6,3.2,2.3,5.3,2.3c1.4,0,2.6-0.2,3.4-0.6c0.9-0.4,1.9-1.2,2.9-2.2
			s2-1.6,2.8-1.6h7.6c0.6,0,1,0.2,1.4,0.6c0.4,0.4,0.5,0.9,0.5,1.5c0,0.4-0.1,1-0.5,1.7c-1.7,3.7-4.2,6.6-7.6,8.5
			c-3.3,1.9-6.9,2.9-10.7,2.9c-5.7,0-10.5-1.9-14.4-5.9c-3.9-3.9-5.9-8.9-5.9-15v-4.7c0-6.1,1.9-11.1,5.9-15S65.3,17,71,17
			c5.5,0,10.2,2,14,5.9c3.9,3.9,5.8,8.8,5.8,14.5v3.9c0,0.7-0.3,1.4-0.8,1.9C89.4,43.7,88.8,44,88,44H63.6L63.6,44.5L63.6,44.5z
			 M78.5,35.6v-0.7c0-2.2-0.7-3.9-2.1-5.3c-1.4-1.3-3.2-2-5.3-2s-3.9,0.7-5.3,2.1c-1.4,1.3-2.1,3.1-2.1,5.3v0.6
			C63.8,35.6,78.5,35.6,78.5,35.6z"/>
	</g>
	<g>
		<path class="st2" d="M7.8,63.5c-3,0-5.7-2.1-6.2-5.3c-0.2-1.3-0.4-2.6-0.6-3.9c-0.6-4.7-1-9.6-1-14.6c0-4.7,0.3-9.3,0.9-13.9
			c0.2-1.3,0.4-2.6,0.6-3.9c0.6-3.4,3.9-5.8,7.3-5.2s5.7,3.9,5.2,7.3c-0.2,1.2-0.4,2.4-0.5,3.5c-0.5,4-0.8,8.1-0.8,12.3
			c0,4.4,0.3,8.7,0.8,13c0.1,1.2,0.3,2.3,0.5,3.5c0.6,3.4-1.7,6.7-5.1,7.3C8.5,63.5,8.1,63.5,7.8,63.5z"/>
	</g>
	<g>
		<path class="st1" d="M364.6,79.9c-1,0-2.1-0.2-3-0.8c-3-1.7-4.1-5.5-2.4-8.6c5.1-9.3,7.8-19.7,7.8-30.9c0-10.9-2.6-21.1-7.7-30.2
			c-1.7-3-0.7-6.9,2.4-8.6s6.9-0.6,8.6,2.4c6.2,11,9.3,23.3,9.3,36.4c0,13.3-3.1,25.8-9.3,37C369,78.8,366.9,79.9,364.6,79.9z"/>
	</g>
	<g>
		<path class="st2" d="M394,63.5c-0.4,0-0.7,0-1-0.1c-3.4-0.6-5.7-3.9-5.2-7.3c0.2-1.2,0.4-2.3,0.5-3.5c0.6-4.2,0.8-8.5,0.8-12.9
			c0-4.1-0.3-8.3-0.8-12.3c-0.1-1.2-0.3-2.4-0.5-3.5c-0.6-3.4,1.8-6.7,5.2-7.3c3.5-0.5,6.7,1.8,7.3,5.2c0.2,1.3,0.4,2.6,0.6,3.9
			c0.6,4.5,0.9,9.2,0.9,13.9c0,4.9-0.3,9.9-1,14.6c-0.1,1.3-0.4,2.7-0.6,3.9C399.7,61.3,397,63.5,394,63.5z"/>
	</g>
</g>
</svg>
